/* XPM */
static char *Untitled__60____60_px___3_1675891735[] = {
/* columns rows colors chars-per-pixel */
"60 60 217 2 ",
"   c None",
".  c #58150B",
"X  c #581614",
"o  c #5C1E17",
"O  c #581816",
"+  c #6D1B11",
"@  c #5F2017",
"#  c #5F2219",
"$  c #7D230D",
"%  c #612117",
"&  c #612319",
"*  c #682819",
"=  c #7B2D1C",
"-  c #742919",
";  c #70321A",
":  c #662921",
">  c #774020",
",  c #93270B",
"<  c #832F1A",
"1  c #852C17",
"2  c #86301B",
"3  c #8B341D",
"4  c #91351E",
"5  c #9C361B",
"6  c #96391F",
"7  c #9D391E",
"8  c #972A15",
"9  c #A03A1F",
"0  c #963920",
"q  c #9E3C21",
"w  c #9D3525",
"e  c #8F3223",
"r  c #A03E23",
"t  c #92571E",
"y  c #AE7B1A",
"u  c #B27D1C",
"i  c #B3741F",
"p  c #9D4328",
"a  c #975D21",
"s  c #A24225",
"d  c #AB4526",
"f  c #A44628",
"g  c #A94528",
"h  c #A6482A",
"j  c #A94B2B",
"k  c #A74C23",
"l  c #B04727",
"z  c #B34927",
"x  c #B04728",
"c  c #B34929",
"v  c #B94E2A",
"b  c #AB512D",
"n  c #AB5823",
"m  c #BE512C",
"M  c #B15B25",
"N  c #AC5333",
"B  c #AD5638",
"V  c #B25A35",
"C  c #B35D3A",
"Z  c #B85332",
"A  c #B84F31",
"S  c #956523",
"D  c #956538",
"F  c #B86A25",
"G  c #BC6C3E",
"H  c #B9663A",
"J  c #C6532C",
"K  c #C9562F",
"L  c #C75730",
"P  c #C95730",
"I  c #CC5930",
"U  c #C45938",
"Y  c #CB562E",
"T  c #CD663A",
"R  c #C4762A",
"E  c #B25E41",
"W  c #B36146",
"Q  c #B3634C",
"!  c #BE6C46",
"~  c #BE7041",
"^  c #B36A51",
"/  c #976D69",
"(  c #966B65",
")  c #B57D69",
"_  c #A86B66",
"`  c #956B4B",
"'  c #D66643",
"]  c #D36E42",
"[  c #DC6842",
"{  c #DB6742",
"}  c #C77E49",
"|  c #C57848",
" . c #D27543",
".. c #D37A46",
"X. c #D37E48",
"o. c #CA7E51",
"O. c #E06B45",
"+. c #B3831B",
"@. c #B98A1D",
"#. c #BE911E",
"$. c #AF811A",
"%. c #BA8523",
"&. c #CC9617",
"*. c #D9A41B",
"=. c #E3AF1A",
"-. c #C78A24",
";. c #C79920",
":. c #CB9C22",
">. c #C79421",
",. c #D49C25",
"<. c #DD9B2D",
"1. c #D5A425",
"2. c #D8A625",
"3. c #DBAA26",
"4. c #DAAC28",
"5. c #DDB52B",
"6. c #DDB437",
"7. c #CFA72B",
"8. c #E0AF27",
"9. c #E3B329",
"0. c #EDBC2D",
"q. c #EAB92A",
"w. c #F3BF2A",
"e. c #DCCA3D",
"r. c #F4C32E",
"t. c #FDCB2C",
"y. c #F8C92D",
"u. c #E4C531",
"i. c #F9C730",
"p. c #FCCB32",
"a. c #F6C731",
"s. c #EBD739",
"d. c #FED434",
"f. c #FBD937",
"g. c #FCEA3C",
"h. c #F8E639",
"j. c #FFF437",
"k. c #F9E62B",
"l. c #CB834C",
"z. c #D48449",
"x. c #D4924F",
"c. c #C78253",
"v. c #D18D52",
"b. c #D38B5B",
"n. c #D59453",
"m. c #D5905D",
"M. c #D79958",
"N. c #D99B59",
"B. c #D89756",
"V. c #DDB44D",
"C. c #DEA25E",
"Z. c #DDB958",
"A. c #DAAF41",
"S. c #D99562",
"D. c #D2957A",
"F. c #CD8C6A",
"G. c #E69D66",
"H. c #DFA661",
"J. c #DFAA64",
"K. c #E1A662",
"L. c #E2A964",
"P. c #E7AE6B",
"I. c #E8AF6B",
"U. c #E8B16C",
"Y. c #ECB573",
"T. c #E8B67E",
"R. c #EDB879",
"E. c #F2BB7D",
"W. c #DCC957",
"Q. c #EAC541",
"!. c #FCD355",
"~. c #FACE52",
"^. c #FCED43",
"/. c #F6E743",
"(. c #FBF546",
"). c #FFFD45",
"_. c #FBE459",
"`. c #FBDF64",
"'. c #E5C572",
"]. c #FBF668",
"[. c #FBF67B",
"{. c #FFE167",
"}. c #DBA68A",
"|. c #E9BA84",
" X c #E8BA8A",
".X c #F5BE81",
"XX c #E2B396",
"oX c #E5B89A",
"OX c #E0AD8C",
"+X c #DEBBB2",
"@X c #F6C183",
"#X c #F9C686",
"$X c #F9C788",
"%X c #FBCA89",
"&X c #FAC887",
"*X c #E9C091",
"=X c #F8CC98",
"-X c #FFD494",
";X c #FCFA89",
":X c #F9D6AF",
">X c #F7D8BA",
",X c #F9D8B9",
"<X c #F0D1B1",
"1X c #FDF6A3",
"2X c #F3E5B9",
"3X c #FFF7B0",
"4X c #FBDEC0",
"5X c #FEE3C5",
"6X c #FFE6CA",
"7X c #FFEACC",
"8X c #FCF2CA",
"9X c #FFECD5",
"0X c #FFF6D7",
"qX c #E2DAE1",
"wX c #FEFBED",
"eX c #FCF6EB",
"rX c #FFFFFF",
/* pixels */
"                                                                                                                        ",
"                                                                                                                        ",
"                                                                                                                        ",
"                                                                                                                        ",
"                                                                                                                        ",
"                                                                                                                        ",
"                    s q 7 7 5 5 r r s q 7 7 7 7 9 5 5 5 5 5 5 5 5 q 7 7 7 5 5 5 5 5 7 r s s q s                         ",
"                    r N E E E C f s r B E E E E H W W Q Q Q Q W E V C E C W Q Q Q Q V j s s s s                         ",
"                s s 8 F.0X5X6X5XN 7 s <X7X6X6X6X6X6X9XrXrXrXrXeX2X&X:X7X5XwXrXrXrXrX-Xb.5 5 5 5 7 7 7 5 9 s             ",
"              s q f }.<X5X=X=X=Xn.H 9 Q F.T.|.T.T.|.|.*X*X*X*X|.T.P.Y.|.T. X*X X*XoXU.N.l.OXXXXXXXXXXXoXD.9 s f         ",
"              s f C >X4X<XE.E.E.P.l.s 5 b B.n.n.v.n.n.x.x.x.x.n.n.B.n.n.B.n.x.n.x.x.B.M.N.<X>X>X>X>X>X,XoXj f q         ",
"          s s , D.7XL.X.K J ..J.N.H.L.N s g f f d d s g d f d d g g s s g s g g g f d d s d d s d s s r ^ 0X^ 5 s       ",
"        s q f D.OX XX.T J J  .H.K.v.H j 0 = = = = = = = = = = = = = = = = = = = = = = = = = = = 3 4 3 3 p ) N q s s     ",
"        s s V 6X*Xz.K K Y K ..C.N.| 4 q 3 o o o o # o o o o o o @ @ @ o o @ @ @ @ @ @ @ o @ @ @ = 2 < 2 < $ 5 s r p s   ",
"        5 b.%XL.X.J I J J N.K.J.b 3 % % % % % % % % % % % % % % & % & & @ @ % & & & @ @ @ = < 2 < < 2 < 3 s s r r s r   ",
"      s 5 c.Y.X.T J K T z.C.v.T g 3 o @ % % @ @ # # % % % @ % # & @ @ # @ @ @ % # & & & - < < < 2 < < 3 7 s s p         ",
"    s f r | N.J J P J z.J.H.~ 5 f e # % % & & & & & % % % % % & & & & & * & & # % % % - 2 2 < < < < < r s s s s         ",
"    7 h N. .K K J P N.H.H.j r q & X . . . . X X X % % % % % X X O O X . . . . # % % < < 2 2 2 < < 3 s r s r             ",
"    r g L...J K T  .H.n.| s k F S ` / / ( / D a a ; o % # ; S S a S ` / ( / ( # @ & < < 2 2 = 2 3 6 s r r s             ",
"  s r g L. .J J X.K.L.G 7 w F 9.j.;XrXrXrXrX`.t.f.t X & o ; ).h.f.j.3XrXrXrXrX* o o < 2 2 2 2 2 q s s r s               ",
"  7 | v.T Y Y x.C.K.N f q -.5./.h.h.!.!.!.!././.^.s.W.qXJ.=.^.f.i.3.Q.!.~._.].e.e.e.s.%.+ $ 1 0 r s r                   ",
"  q } C.T T ..H.v.} r M R 1.u.(.[.`.q.q.w.t.f.h.s.h.].rX3X{.^.s.q.,.q.t.y.d.h.g.g.^.).V._ ) Q s s s s                   ",
"  7 } L.C.L.K.P.G r e R f.,.u.(.rX>X&.:.8.p.t.r.:.s.].rXrXwX(.u.,.1.0.p.t.i.p.i.i.p.h.1XrXrX+X8                         ",
"  s b H L.} N C g d <.w.p.0.a.f.wXeX2X6.=.p.p.p.r.q.Q.[.0XeXf.q.2.2.3.9.p.p.p.p.i.p.d._.[.rX2X5./.                      ",
"  s q s n.C 5 k k n u.y.p.p.p.p.2XeXrXV.2.i.r.r.p.3.4.k.1X8Xr.3.:.,.1.2.r.a.p.a.r.a.0.y.h.7X1Xj.^./.                    ",
"    s s r r g 3.;.$.y 1.d.p.p.p.*.'.rXV.*.1.1.5.d.4.4.p.^.h.2.>.+.+.;.1.,.0.p.1.1.2.$.1.d.p.t.i.(.s.1.                  ",
"        s r s M u @.$.:.9.9.9.8.2.6.'.4.1.2.2.3.9.2.2.9.7.:.>.+.+.+.:.2.1.3.9.2.;.#.+.#.:.:.1.9.9.5.1.                  ",
"        s s s q n +.y -.,.,.,.,.,.,.&.,.,.,.,.,.,.,.,.,.@.u u +.u u >.2.,.,.,.,.>.y +.u u y @.1.,.,.,.                  ",
"        s q 5 s s f q v I I I I I I I I I Y I I I I I I I I I I I Y I I P I I I I I I I Y I I I I I I d q               ",
"        7 ! b.q r r q g c x c d x x x x l d l l l l c d c l l c d d l l l z x j d c c d l d c l l l l s s               ",
"        5 m.&Xh s r h f f f s f f f f f f f f f f f f p f f f f f f f f s h f f f f f f f f f f f f f s s               ",
"        5 b.-X#X| r E..X@XE..X.X.X.X.X.X.X.XE.@X.X.X@X@XE..X.X.X@X.X.X@X.X.X.X.X.X.X.X.X.X.X.X.X.X.X.X] J               ",
"        r H ) %Xo.r @XE.Y.#X'.R.Y.Y.Y.Y.Y.Y.Y.Y.Y.Y.Y.Y.Y.Y.Y.Y.Y.Y.Y.Y.Y.Y.Y.Y.Y.Y.Y.Y.Y.Y.Y.Y.Y.R.$X] J               ",
"        d 1 1 '.o.r @XY.N.E.I.B.N.N.N.M.M.M.B.N.N.N.N.N.N.N.N.N.N.N.C.N.M.M.M.N.M.M.M.M.N.M.M.N.N.L.$X] J               ",
"        s 4 3 I z s .XY.N.j r x s h f h f f h f j s C #XP.n.r r b N.Y.E.h f h g f f f f j s f f v.P.&X] J               ",
"        s e 3 K z g @XY.N.f q w 6 q 6 6 7 0 6 6 0 7 V #XP.n.H H G N.Y..Xs q 0 6 q 6 q 6 7 6 q r v.P.&X] J               ",
"        s e 2 I z f .XY.M.h e 2 2 < = 1 < < < < < 6 V $XI.C.L.K.K.N.Y.E.g 6 = < = < 2 2 < < 3 s v.P.#X .J               ",
"        s 4 2 K z g .XY.N.f d m m m v m v m v m v g r V N j j j j N N N q d J v m v m m m 2 3 s v.P.&X] J               ",
"        s 4 2 I z f .XE.N.f c I I I I I P P I I K v z d l l d l d d d z j J I I P Y P Y Y 3 3 s v.P.#X] J               ",
"        s 6 2 I c f '.Y.N.f l P J K J J J J J J J K K K J K K K Y I K K K K J J J J J K K 2 3 s v.P.#X] J               ",
"        s 4 < P z f @XY.B.f v [ { { { { { { [ [ [ [ [ [ [ [ [ [ [ { { ' ' [ [ [ [ [ { { { T Z q v.P.&X] J               ",
"        r 3 3 P c f .XY.N.f Z [ ' ' ' ' ' ' ' ' ' ' ' ' ' ' ' ' ' ' ' ' ' ' ' ' ' { { ' ' [ U q v.P.&X] J               ",
"        f 4 2 I c s @XY.M.f q p p q q q q q p 6 q q q q q q q q p 7 q q q p q q p 6 p 7 q p s s v.P.&X] J               ",
"        r 4 2 I z f @XY.N.f d v c v v v v v v v c v v v v v v z v v v v v v v v v v v v v 0 0 s v.I.&X] J               ",
"        s 0 3 P l f @XY.N.f l I I P I I I P I P I I I I I I P I P P I P I I I I I I P I K 3 3 s v.P.&X] J               ",
"        s 7 5 I l p .XY.N.f l P L J J I K L K L L L L L J L P K K K K K L J L J L L J I J 3 3 s v.P.&X] J               ",
"        q ! b.z z m @XY.M.f c I L I P K K K L P P P P P K K K P I L K P I I P K K P I L J 3 3 s v.P.#X] J               ",
"        5 b.#Xf c T @XY.N.h c I J L I L P P I J L J P L K P P K L L K K L J P L P L J I L 3 0 s v.P.&X] J               ",
"        s r j -Xo.r @XY.B.s 7 q 7 q 5 q r r 5 r 9 q 9 5 5 r 9 5 7 7 s 7 7 q q 7 q q 7 r 5 7 5 w v.P.$X] J               ",
"          r r b.C p @XY.M.| ~ ~ G | G | G G G | G | G | G | G | G G G G ~ G ~ ~ ~ ~ ~ ~ ~ ~ G | n.P.&X] J               ",
"          s r 5 q h .XY.C.L.L.L.K.K.L.L.L.L.K.K.L.L.L.L.K.K.L.K.L.L.L.L.L.L.L.L.L.L.L.L.L.L.L.L.C.L.&X] J               ",
"              s v I @X#X@X#X#X#X#X#X#X#X#X&X@X#X#X#X#X#X@X&X&X#X%X&X&X#X#X#X#X#X#X#X#X#X#X#X#X#X#X#X%X .J               ",
"              r d L G.G.G.S.S.S.S.S.S.S.S.S.S.S.S.S.S.S.S.S.S.S.S.S.S.S.S.S.S.S.S.S.S.S.S.S.S.S.S.m.S.T J               ",
"              s q s J J J q 7 q 7 q 5 q q 5 5 r 7 7 q 5 7 q 7 7 7 7 q 7 q q q 7 7 7 q q 7 q 7 7 7 w 0 J K               ",
"                                                                                                                        ",
"                                                                                                                        ",
"                                                                                                                        ",
"                                                                                                                        ",
"                                                                                                                        ",
"                                                                                                                        "
};
