/* XPM */
static char *Untitled__60____60_px_1675890870[] = {
/* columns rows colors chars-per-pixel */
"60 60 162 2 ",
"   c None",
".  c #040000",
"X  c #0F0A0B",
"o  c #130E0F",
"O  c #010111",
"+  c #0B0710",
"@  c #0B0912",
"#  c #130F11",
"$  c #141011",
"%  c #191515",
"&  c #16161F",
"*  c #1A171B",
"=  c #1E1A1D",
"-  c #231F1F",
";  c #372F0C",
":  c #26211F",
">  c #29231F",
",  c #2E291E",
"<  c #36261F",
"1  c #31291C",
"2  c #3D3317",
"3  c #0C0C23",
"4  c #040322",
"5  c #151521",
"6  c #191622",
"7  c #1B1920",
"8  c #201D20",
"9  c #272323",
"0  c #2A2625",
"q  c #342C21",
"w  c #363128",
"e  c #3F3522",
"r  c #553E1E",
"t  c #4E4519",
"y  c #5F4D1B",
"u  c #70580F",
"i  c #61451B",
"p  c #6C4B1C",
"a  c #704F1E",
"s  c #705910",
"d  c #74511D",
"f  c #7C6918",
"g  c #7D7219",
"h  c #44403F",
"j  c #413E40",
"k  c #474342",
"l  c #4A4643",
"z  c #6C675D",
"x  c #7F7A5E",
"c  c #696667",
"v  c #6B6A71",
"b  c #757274",
"n  c #855A18",
"m  c #886810",
"M  c #8C7B16",
"N  c #827719",
"B  c #937517",
"V  c #937C16",
"C  c #9F7A11",
"Z  c #A36D1B",
"A  c #AC741C",
"S  c #BA7D1C",
"D  c #87622B",
"F  c #857648",
"G  c #897B53",
"H  c #938514",
"J  c #948819",
"K  c #9E9012",
"L  c #A4910D",
"P  c #AB8716",
"I  c #A69512",
"U  c #B7A511",
"Y  c #A99D30",
"T  c #C5831B",
"R  c #CC851A",
"E  c #CB851A",
"W  c #D58716",
"Q  c #D48C15",
"!  c #D49417",
"~  c #F0970B",
"^  c #E18F14",
"/  c #EE9314",
"(  c #E59D14",
")  c #E79A13",
"_  c #F69914",
"`  c #DDA903",
"'  c #DBA708",
"]  c #DDAB09",
"[  c #CEB60F",
"{  c #C7B50F",
"}  c #DDB008",
"|  c #D7BE0F",
" . c #DBBD0F",
".. c #CEA810",
"X. c #C6A412",
"o. c #D1A511",
"O. c #DCAC11",
"+. c #CFB311",
"@. c #C7B513",
"#. c #D1B012",
"$. c #E0A30F",
"%. c #E3BA0D",
"&. c #EEBB0F",
"*. c #E3B50A",
"=. c #E2AC11",
"-. c #E5A416",
";. c #FFA513",
":. c #E2B411",
">. c #EDB711",
",. c #EDBA10",
"<. c #F2BF11",
"1. c #C1A731",
"2. c #E4BA2A",
"3. c #F7AF3D",
"4. c #E1B838",
"5. c #DCC600",
"6. c #DFCC03",
"7. c #D2C10E",
"8. c #DCC40D",
"9. c #DDCA0D",
"0. c #DFD20C",
"q. c #DDC410",
"w. c #E3C20D",
"e. c #E1CD0C",
"r. c #EBCC09",
"t. c #F8C70E",
"y. c #E3D20C",
"u. c #ECD40B",
"i. c #EDDA0B",
"p. c #E8D407",
"a. c #F1D70B",
"s. c #F3DD09",
"d. c #E4CA1E",
"f. c #FFC811",
"g. c #E7D517",
"h. c #EFDB18",
"j. c #E2D126",
"k. c #EFDF37",
"l. c #8D8876",
"z. c #E9CD4A",
"x. c #EDDF59",
"c. c #EBCB61",
"v. c #EBDF60",
"b. c #ECD26E",
"n. c #7C7B82",
"m. c #807E80",
"M. c #818085",
"N. c #908E91",
"B. c #999796",
"V. c #A3A19B",
"C. c #A7A6A7",
"Z. c #ACACB4",
"A. c #BBBABE",
"S. c #CCC585",
"D. c #EAD48B",
"F. c #F5EB85",
"G. c #BCBBC0",
"H. c #C8C8CB",
"J. c #FAF5D2",
"K. c #F5F4DB",
"L. c #FFFFEF",
"P. c #FFFFFF",
/* pixels */
"                                                                                                                        ",
"                                                                                                                        ",
"                                                                                                                        ",
"                                                                                                                        ",
"                                                                                                                        ",
"                                                                                                                        ",
"                                                                                                                        ",
"                                                                                                                        ",
"                                                                                                                        ",
"                                                                                                                        ",
"                                                                                                                        ",
"                                                                                                                        ",
"                                                                                                                        ",
"                                                                                                                        ",
"                                                                                                                        ",
"                                                                                                                        ",
"                                                                                                                        ",
"                                                                                                                        ",
"                                                                                                                        ",
"                                                                                                                        ",
"                                                                                                                        ",
"                                % % % = 7                                                                               ",
"                                k k k w 1                                                                               ",
"                            $ j P.P.P.c.` q 6 = *                                                                       ",
"                            j z J.J.K.z.%.i e k k                                                                       ",
"                        o % P.L.6.p.s.y.p.%.2.P.Z..                                                                     ",
"                      % b B.D.b.w.U g X.w.' -.F.S.N.c   0 > 0 0 > > 9 9 > 9 > 9 > > > > 0   0                           ",
"                    9 % H.P.` ` f.m O C f.^ $.w.x.P.b @ 6 5 5 & 5 5 5 5 5 5 5 * 5 5 5 & # # # o                         ",
"                      % A.P.d...s G Z.F u W ( e.j.x.1.C H H B B B B B V H H M B V J H J V.C.C.b $                       ",
"                    9 % A.P.g.{ O m.P.v + E $.e.e.e.w.>.a.u.&.,.,.>.,.u.i.a.r.>.r.i.u.h.P.P.P.B.#                       ",
"                    9 * Y k.y.@.@ n.P.v X T -.9.w.%.:.:.$.( ) $.e.e.e.%.%.e.9.a.M 6 U y.4.4.3.D &                       ",
"                      6 L p.y.@.; l.P.G r ! =.e.w.O.O.o.Q W W ! 7.7.| ..o. .| 9.g 4 K 8.} ' ~ n 6                       ",
"                    : 7 P <.e.e.s.N 3 U i.e.e.y.%._ d = > : : : : : : : , S Z 9 >   - 1 9.q.R a 6                       ",
"                      7 B X. .8.u.I t @.y.9.9.8.o.E p 5 - 8 8 8 8 8 8 7 9 S Z 7     7 > +.+.T a 5                       ",
"                        = > :.t.0.y.i.y.e.s.a.;.Z 5                   8 > R A 7 :   = , T R ! d 6                       ",
"                          > f B :.:.O.:.=.H g n a                       9 a p =       9 a d d r                         ",
"                            3 < / / / / / q 3 5 &                         7 &           6 6 6 5                         ",
"                              2 i i i i i                                                                               ",
"                                7 5 6 7 6                                                                               ",
"                                                                                                                        ",
"                                                                                                                        ",
"                                                                                                                        ",
"                                                                                                                        ",
"                                                                                                                        ",
"                                                                                                                        ",
"                                                                                                                        ",
"                                                                                                                        ",
"                                                                                                                        ",
"                                                                                                                        ",
"                                                                                                                        ",
"                                                                                                                        ",
"                                                                                                                        ",
"                                                                                                                        ",
"                                                                                                                        ",
"                                                                                                                        ",
"                                                                                                                        ",
"                                                                                                                        ",
"                                                                                                                        ",
"                                                                                                                        ",
"                                                                                                                        "
};
