/* XPM */
static char *Untitled__60____60_px___4_1676065796[] = {
/* columns rows colors chars-per-pixel */
"60 60 223 2 ",
"   c None",
".  c #070900",
"X  c #140500",
"o  c #1B0500",
"O  c #160A00",
"+  c #1C0B00",
"@  c #031500",
"#  c #0C1400",
"$  c #041B00",
"%  c #0B1C01",
"&  c #1C1203",
"*  c #121B01",
"=  c #1A1802",
"-  c #220E01",
";  c #270901",
":  c #251102",
">  c #2B1404",
",  c #241C05",
"<  c #2C1A05",
"1  c #2A1B0C",
"2  c #281909",
"3  c #311604",
"4  c #341905",
"5  c #3B1D07",
"6  c #3B1E08",
"7  c #371907",
"8  c #0D2301",
"9  c #0C2A01",
"0  c #062301",
"q  c #132404",
"w  c #1B2305",
"e  c #132B06",
"r  c #16290A",
"t  c #15350A",
"y  c #153B09",
"u  c #1B3C0D",
"i  c #173607",
"p  c #1D3D12",
"a  c #1F3111",
"s  c #242507",
"d  c #3E2009",
"f  c #372707",
"g  c #233C15",
"h  c #243717",
"j  c #343A1E",
"k  c #29290D",
"l  c #2F3524",
"z  c #411F06",
"x  c #411F08",
"c  c #442106",
"v  c #44220A",
"b  c #4B260B",
"n  c #4D280D",
"m  c #542B0E",
"M  c #592E0E",
"N  c #55220A",
"B  c #4A340E",
"V  c #5D310F",
"C  c #562E10",
"Z  c #5A2F10",
"A  c #483715",
"S  c #5D3111",
"D  c #633512",
"F  c #6B3713",
"G  c #673812",
"H  c #6B3A14",
"J  c #733D15",
"K  c #63350F",
"L  c #1B4B0B",
"P  c #174509",
"I  c #1E530E",
"U  c #1F4D10",
"Y  c #1D4011",
"T  c #1A5911",
"R  c #204313",
"E  c #224C14",
"W  c #264D19",
"Q  c #29441B",
"!  c #225211",
"~  c #29541A",
"^  c #2B5B1C",
"/  c #275717",
"(  c #3C4F1C",
")  c #2E651D",
"_  c #2E691C",
"`  c #276414",
"'  c #2D7618",
"]  c #31731E",
"[  c #30661E",
"{  c #364A24",
"}  c #2F5821",
"|  c #315C23",
" . c #3A5726",
".. c #3A4C36",
"X. c #345333",
"o. c #346323",
"O. c #3C6C2C",
"+. c #366625",
"@. c #397427",
"#. c #357B22",
"$. c #3C732E",
"%. c #3D7A2A",
"&. c #3F7131",
"*. c #764016",
"=. c #7A4217",
"-. c #7D4419",
";. c #764118",
":. c #644413",
">. c #425228",
",. c #455736",
"<. c #525B34",
"1. c #427928",
"2. c #4C6737",
"3. c #546B3D",
"4. c #477837",
"5. c #416526",
"6. c #374A44",
"7. c #475E48",
"8. c #515E4B",
"9. c #53674A",
"0. c #5A6355",
"q. c #4B6E4D",
"w. c #667A4A",
"e. c #636E5C",
"r. c #717C51",
"t. c #5E7E71",
"y. c #677362",
"u. c #6C7068",
"i. c #84491B",
"p. c #884A1C",
"a. c #34801D",
"s. c #3A8525",
"d. c #3D9424",
"f. c #41862C",
"g. c #469C2E",
"h. c #44922C",
"j. c #498336",
"k. c #498A36",
"l. c #54863E",
"z. c #4C9736",
"x. c #519839",
"c. c #4CA335",
"v. c #4DA738",
"b. c #51A23B",
"n. c #56AF3E",
"m. c #55B13D",
"M. c #5AB736",
"N. c #63B735",
"B. c #66C239",
"V. c #5A8E46",
"C. c #559442",
"Z. c #5A9246",
"A. c #599A44",
"S. c #5B9D49",
"D. c #728C56",
"F. c #759158",
"G. c #6A8E58",
"H. c #5AAC42",
"J. c #5EA34B",
"K. c #5AA645",
"L. c #5AB343",
"P. c #5EBC46",
"I. c #5CA551",
"U. c #60A34D",
"Y. c #64AF4F",
"T. c #61B34A",
"R. c #62B94A",
"E. c #6AA353",
"W. c #65AC52",
"Q. c #66A752",
"!. c #77A85A",
"~. c #6AB455",
"^. c #6CBE54",
"/. c #6EBC5A",
"(. c #6CB558",
"). c #71BC5C",
"_. c #74B55B",
"`. c #7C8676",
"'. c #79B960",
"]. c #69C64B",
"[. c #6DC255",
"{. c #6FC458",
"}. c #73C45D",
"|. c #73CB5C",
" X c #75C45B",
".X c #77CC52",
"XX c #76C461",
"oX c #76CA60",
"OX c #7ACB64",
"+X c #7ECC69",
"@X c #7AC462",
"#X c #7CD165",
"$X c #7FD568",
"%X c #86AC5C",
"&X c #819272",
"*X c #8AB268",
"=X c #85A66D",
"-X c #83C766",
";X c #82D56C",
":X c #84DA6D",
">X c #9BC778",
",X c #9BD37A",
"<X c #98D97A",
"1X c #88DE71",
"2X c #A7D475",
"3X c #878D82",
"4X c #8E9988",
"5X c #939491",
"6X c #9AA595",
"7X c #A1A29E",
"8X c #8CBEA7",
"9X c #B0B6AD",
"0X c #9FDC80",
"qX c #B3D88B",
"wX c #B1D78B",
"eX c #9FE480",
"rX c #B0E589",
"tX c #BBD9B2",
"yX c #C6E39B",
"uX c #C1DABA",
"iX c #D1D2D0",
"pX c #DEE0DD",
"aX c #F9F8F9",
/* pixels */
"                                                                                                                        ",
"                                                                                                                        ",
"                                                                                                                        ",
"                                    X - 3 6 6 - 4 + 4 6 + v v + > C H G n 5 + >                                         ",
"                                + + - > > D D 3 M M b S 6 m M 6 v V M 6 4 v m m +                                       ",
"                              X - - > 6 > x S 6 5 V M m Z C M m m m m b K 5 v v 4 :                                     ",
"                            - 7 b n 6 : 7 m b 3 m 5 b C m m b M b 7 n Z D m : v b 6                                     ",
"                          O 4 : < 4 b v m 6 v b M v m m S Z 7 7 m v 7 m m m b 4 +                                       ",
"                          + + n G n V m v m Z C M M 5 b C M C d b S m H S X : 4 ;.v X                                   ",
"                          X 7 6 b V *.v m D C Z m M c M m M m M m M m 6 n 4 - + 6 v                                     ",
"                          + v + 6 J 5 5 H 7 D H c c V M 7 b m V H 5 D : + 5 m > +                                       ",
"                          : b 7 ;.m ; H m - H S 4 > H M : b x v F v Z D - : b > + +                                     ",
"                          4 > 4 J > 6 J 7 > H v > > F m : m b + m c : H 4 + 3 b - + X                                   ",
"                          - X v C + =.F 3 : H n ; - J b + b D + v M o b m > ; 3 O O +                                   ",
"                          +   > > O m -.> & D z s j J b + 3 G + > F k < b + r j { = 4 4 > :                             ",
"                                O 8 j N A I.b > 2.>.N ; 5.( 5 + - N 1.~ 2 o.j.*XF.@ > 6 4 - > +                         ",
"                      . %         r *X( {  X: { C.O - k N. X= V.A.1 C._ x.y ^ !.!.$ v =.D - 3 n :                       ",
"          8 @ @ % g $.V.*X=X>.%   r %X#XXXXXE.E.W 8 +.N.].-XV.(.).Z.).~ J.U [ eXD.% -.J D 5 - S F X                     ",
"        8 9  .F.Z. Xk.O.5.*X,XR @ ( 2X].L.L.P.].] @ #.M.B.|.}.^.[.XX$XU } u u qX .f J b m b 3 & G v                     ",
"        8 % 4._.z.L a O.$.O.OXXXe i 2.! L / | ! U } t L ^ | ! / L / J.J.@._ k.Z.f J m m m C v > D p.7                   ",
"          8 $ 0 @ <.>XOX).H.T.:X4.    8 { 0.u.X. X;XK.0.3Xh u.pXe.| oX$X}.H.[.Y G H m C v v 4 C m H H                   ",
"            h h R <X/.k.y ' L.;X(.t   8 G.4. .,X#X[./.Q 7XiXaXaX`.k.$XK.4.R.s.f i.C m C v 7 > m m D G                   ",
"          p >XA.9 Y W e 9 h.W.).+Xe e %X+. .yX$XOX:Xj.L 7.7X3X9.S.oX).g.U h q :.J n M N 6 7 : m m m *.d                 ",
"          p  .Y t ~ 9 %.W ^ J.J. .# =XrX| w.E./.Y.j.W f._ y 1.J.$X+X_.H.` + X D J C Z b 5 3 + m m m H b                 ",
"              . k.m.e ] {.@.] p ; <.yXW.%.U o.@.h.f.W.[.g.f.K.;XXX_.W.H.` % + D J m m b 5 3 + C M M D v                 ",
"              $ ^ +.8 8 +.~ , 6 b r.qXW.Y.#.L ~ L ^ U.:X XoXoX/.(.W.~.g._ # 4 =.m m M b 6 4 - n D F S 4                 ",
"                  @     X - x C z r.yX(.Z.4X`...`.y.e | ;X;XOXQ.J.OX^.d.u O 4 =.Z C m v d < : C S G F S                 ",
"                        + > 3 v z <.wXT.+XuXtX+.7X`.4X5XP U.;XA.8 U.n.a.e O G =.m Z n 6 7 4 + m J D G m >               ",
"                          + : 3 b %  .z.R.oX|.~.9 @ h ..y.,.t R U.T.d.E # + 3 b m Z b 7 4 4 < m F D V K n               ",
"                          + + - v < y x.L.oX$X/.6X`.y.9.9X3Xy S.{.g.` e + > m V m m d 5 4 > > Z V K H H v               ",
"                            + + 3 c w / s.v.$XOX'.9.9.3.! +.{.L.d.` $ . - G H V m b d 4 4 - 4 F D F F V n               ",
"                              + : 4 5 w 9 I z.4.^./.^.^.P.L.s.` y @ , m m v d m m d 5 4 > O 5 S F G G m m               ",
"                              + + > < = % q $ . P #.b.#.T P 0 % , Z J H S Z Z n d d 7 7 > + 7 G H H H S < +             ",
"                                + * $ 3.wX!.5.D.r.Q $ w B B C J J H C C m m b v d 6 4 > : + S G S D D v 3 +             ",
"                                  $ w.rX-X$X1XeXeX@X$.2 p.p.H V n m C Z m v 5 v 4 7 : + O 4 H S K K M 4 7 -             ",
"                                $ 3.<Xv.L U.+X|.}.$X}.r 5 m b b n m b b x 5 5 7 > : X 6 b Z S D K K M 3 4 >             ",
"                                <.<Xf.P R }.%. XoXXX#XJ., v d d b b v 4 4 7 3 > + - x D D D D D D D m 3 7 :             ",
"                                G.;Xe # C.x.) v._ l.)./.= 4 4 4 4 4 4 : : - + : > x b v v n m S S m b 3 4 -             ",
"                              r _.L.i % C.x.j.c.9 s.m.z.r 7 > : - - - + : 4 4 b > 4 7 6 6 4 4 > m m 6 7 > +             ",
"                              r _.#.q @ V.x.j.[.^ | ` ' y o X ; + - > 7 m m C v 6 S Z S Z S C > C b 4 6 < +             ",
"                                ~ q B s $.W.^ |.@.h ..X.q.0.0.1 + < 4 d b b v n 7 n n b v v 5 5 n 5 4 > - +             ",
"                                    V f * p 8 O.Y 7.6.t.8X8X8Xl o > 4 7 < c c b v v v 6 v x 7 > 4 3 > - -               ",
"                                    5 v > + & , = 1 2 1 1 1 2 + - - > 3 3 4 5 5 d 6 6 7 5 7 3 4 3 - - - +               ",
"                                    7 v > : : F m n 3 v 6 7 b > - + + > > > : > 2 > > > > : - : - + + - +               ",
"                                    S m > : + M H n + - > : + > > 3 6 : + + + + + + + + +                               ",
"                                    v d > > + + n Z v : + +       6 S b > :                   + + +                     ",
"                                                3 K v - -         b V v 3 + +     + - + + O j 1 > +                     ",
"                                                b D 6 - +         Z D n 5 + - + + - : - + 2 >.> 4 + +                   ",
"                                                  v m 7 +     + X M H v > + 3 5 4 > > 4 6 < & 4 7 3 + +                 ",
"                                                  v m 3 : - + > + m ;.n 4 x v b v n b v C f r > 5 5 > +                 ",
"                                                  b J 6 6 v C Z m 6 H C Z Z D D D G D D S 3   + 3 5 5 : +               ",
"                                                  : Z b > > 4 6 7 4 p.H b J -.m m C m m b       : 5 6 6 - +             ",
"                                                                    n 7   > 3 : > + O X         - 3 7 5 > +             ",
"                                                                            M x 7 > - +           m 4 5 > +             ",
"                                                                            m 5 3 : - O         - H b 5 3 +             ",
"                                                                            V c 3 > + +         X m -.v > +             ",
"                                                                            7 S b + +               - + +               ",
"                                                                                                                        ",
"                                                                                                                        ",
"                                                                                                                        "
};
