/* XPM */
static char *oie_10233532MfkeEKwq1676068620[] = {
/* columns rows colors chars-per-pixel */
"60 60 223 2 ",
"   c None",
".  c #070900",
"X  c #140500",
"o  c #1B0500",
"O  c #160A00",
"+  c #1C0B00",
"@  c #031500",
"#  c #0C1400",
"$  c #041B00",
"%  c #0B1C01",
"&  c #1C1203",
"*  c #121B01",
"=  c #1A1802",
"-  c #220E01",
";  c #270901",
":  c #251102",
">  c #2B1404",
",  c #241C05",
"<  c #2C1A05",
"1  c #2A1B0C",
"2  c #281909",
"3  c #311604",
"4  c #341905",
"5  c #3B1D07",
"6  c #3B1E08",
"7  c #371907",
"8  c #0D2301",
"9  c #0C2A01",
"0  c #062301",
"q  c #132404",
"w  c #1B2305",
"e  c #132B06",
"r  c #16290A",
"t  c #15350A",
"y  c #153B09",
"u  c #1B3C0D",
"i  c #173607",
"p  c #1D3D12",
"a  c #1F3111",
"s  c #242507",
"d  c #3E2009",
"f  c #372707",
"g  c #233C15",
"h  c #243717",
"j  c #343A1E",
"k  c #29290D",
"l  c #2F3524",
"z  c #411F06",
"x  c #411F08",
"c  c #442106",
"v  c #44220A",
"b  c #4B260B",
"n  c #4D280D",
"m  c #542B0E",
"M  c #592E0E",
"N  c #55220A",
"B  c #4A340E",
"V  c #5D310F",
"C  c #562E10",
"Z  c #5A2F10",
"A  c #483715",
"S  c #5D3111",
"D  c #633512",
"F  c #6B3713",
"G  c #673812",
"H  c #6B3A14",
"J  c #733D15",
"K  c #63350F",
"L  c #1B4B0B",
"P  c #174509",
"I  c #1E530E",
"U  c #1F4D10",
"Y  c #1D4011",
"T  c #1A5911",
"R  c #204313",
"E  c #224C14",
"W  c #264D19",
"Q  c #29441B",
"!  c #225211",
"~  c #29541A",
"^  c #2B5B1C",
"/  c #275717",
"(  c #3C4F1C",
")  c #2E651D",
"_  c #2E691C",
"`  c #276414",
"'  c #2D7618",
"]  c #31731E",
"[  c #30661E",
"{  c #364A24",
"}  c #2F5821",
"|  c #315C23",
" . c #3A5726",
".. c #3A4C36",
"X. c #345333",
"o. c #346323",
"O. c #3C6C2C",
"+. c #366625",
"@. c #397427",
"#. c #357B22",
"$. c #3C732E",
"%. c #3D7A2A",
"&. c #3F7131",
"*. c #764016",
"=. c #7A4217",
"-. c #7D4419",
";. c #764118",
":. c #644413",
">. c #425228",
",. c #455736",
"<. c #525B34",
"1. c #427928",
"2. c #4C6737",
"3. c #546B3D",
"4. c #477837",
"5. c #416526",
"6. c #374A44",
"7. c #475E48",
"8. c #515E4B",
"9. c #53674A",
"0. c #5A6355",
"q. c #4B6E4D",
"w. c #667A4A",
"e. c #636E5C",
"r. c #717C51",
"t. c #5E7E71",
"y. c #677362",
"u. c #6C7068",
"i. c #84491B",
"p. c #884A1C",
"a. c #34801D",
"s. c #3A8525",
"d. c #3D9424",
"f. c #41862C",
"g. c #469C2E",
"h. c #44922C",
"j. c #498336",
"k. c #498A36",
"l. c #54863E",
"z. c #4C9736",
"x. c #519839",
"c. c #4CA335",
"v. c #4DA738",
"b. c #51A23B",
"n. c #56AF3E",
"m. c #55B13D",
"M. c #5AB736",
"N. c #63B735",
"B. c #66C239",
"V. c #5A8E46",
"C. c #559442",
"Z. c #5A9246",
"A. c #599A44",
"S. c #5B9D49",
"D. c #728C56",
"F. c #759158",
"G. c #6A8E58",
"H. c #5AAC42",
"J. c #5EA34B",
"K. c #5AA645",
"L. c #5AB343",
"P. c #5EBC46",
"I. c #5CA551",
"U. c #60A34D",
"Y. c #64AF4F",
"T. c #61B34A",
"R. c #62B94A",
"E. c #6AA353",
"W. c #65AC52",
"Q. c #66A752",
"!. c #77A85A",
"~. c #6AB455",
"^. c #6CBE54",
"/. c #6EBC5A",
"(. c #6CB558",
"). c #71BC5C",
"_. c #74B55B",
"`. c #7C8676",
"'. c #79B960",
"]. c #69C64B",
"[. c #6DC255",
"{. c #6FC458",
"}. c #73C45D",
"|. c #73CB5C",
" X c #75C45B",
".X c #77CC52",
"XX c #76C461",
"oX c #76CA60",
"OX c #7ACB64",
"+X c #7ECC69",
"@X c #7AC462",
"#X c #7CD165",
"$X c #7FD568",
"%X c #86AC5C",
"&X c #819272",
"*X c #8AB268",
"=X c #85A66D",
"-X c #83C766",
";X c #82D56C",
":X c #84DA6D",
">X c #9BC778",
",X c #9BD37A",
"<X c #98D97A",
"1X c #88DE71",
"2X c #A7D475",
"3X c #878D82",
"4X c #8E9988",
"5X c #939491",
"6X c #9AA595",
"7X c #A1A29E",
"8X c #8CBEA7",
"9X c #B0B6AD",
"0X c #9FDC80",
"qX c #B3D88B",
"wX c #B1D78B",
"eX c #9FE480",
"rX c #B0E589",
"tX c #BBD9B2",
"yX c #C6E39B",
"uX c #C1DABA",
"iX c #D1D2D0",
"pX c #DEE0DD",
"aX c #F9F8F9",
/* pixels */
"                                                                                                                        ",
"                                                                                                                        ",
"                                                                                                                        ",
"                                        - + x n H H M > + v v + 5 4 + 4 : 6 6 3 - X                                     ",
"                                      O m M v 3 5 C M v 6 M m 6 V b M M 3 G S > > - O O                                 ",
"                                    : 4 v v 5 D b M M m m M M M m M K 5 5 Z v > 6 > - : X                               ",
"                                    6 n v - m G C n 7 b M b m M C b 5 n 3 n m 7 > 6 m b 6 -                             ",
"                                      O 4 n m m C 4 v m 7 5 C M C n v Z n v 5 m v v 4 > : 4 X                           ",
"                                  X v *.4 - X V H C Z n x M M Z b 4 V M M C M x C Z C G n + O                           ",
"                                    v 6 - + 3 m 5 n C C Z m M C m v M m M m K m v J M v x 7 X                           ",
"                                      + 3 m 6 O : D 5 H V m v 5 M V c c H D 5 H 5 6 J x + v -                           ",
"                                    + + > v > - G C v G x x n - V H > 4 M H : n J + C ;.7 b -                           ",
"                                  O + - b > - 3 H : x C - x M - m H > > v J > 6 J 6 > J 7 2 3                           ",
"                                  O O X 3 - > M b o Z x + G n O b J - ; b H - 3 F =.+ m v X -                           ",
"                            : > 4 7 = { j s + b < k H 3 + F 3 + v J j 1 6 D = > =.m O > >   +                           ",
"                        + > - 4 6 > @ D.-X4.o.: ~ 1.N - + z { 5.; N >.4.> n J.A N l w O                                 ",
"                      : n 3 : S =.b $ !.!.^ y x.[ A.2 Z.l.&  XN.k + O C.{ : ).{ ( %Xi         % @                       ",
"                    X H S : 6 D J -.% D.eX[ U K.~ ).V. X).V.-X].N.+.9 W Q.Q.XXXX;X%Xw   %  .=X*Xl.&.g * @ $ 8           ",
"                    v G + 4 b m n H f { qXu u } U ;X|.^.^.|.OXB.M.#.$ _ ].P.L.L.].2X{ @ Y ,X*X5.O.k. XV.D. .9 8         ",
"                  5 p.D > v C m Z n ;.f Z.k._ @.U.U.~ P / ! o.^ L t } U I } / U ! 2.t e XXoXO.O.O.h I g._.4.8 %         ",
"                  H H m m 4 b v Z m H H p [.m.|.:X}.| e.pXu.l 3X0.K.OXOXO.e.0.{ e     4.:XT.T./.@X>X,.@ 0 $ %           ",
"                  H D C m > 4 v m m M p.k %.R.4.K.:Xk.`.aXaXiX7XQ /.[.#X>X .q.G.9   t (.;XT.' y z./.,Xg h g             ",
"                x J m M m : 4 6 n M m J :.q h L g.).oXS.9.3X6X8.L j.:XOX;XyX .+.!.w w #X).W.h.9 e W u 9 A.>Xp           ",
"                b F n m m + 4 7 n M n J G o + / H._.#X$XK.%.i [ f.E j.W./.E.w.o.rX=X#  .J.J.^ E @.e ~ t R  .p           ",
"                v D M M M + 4 5 n M m H G O % ` L.Q.(.OX1XK.%.g.[.W.k.d.@._ E %.E.yX<.; u ] @./.] e m.k..               ",
"                4 M G S m - 4 6 v m M V =.4 # _ g.~.W.(./.OXoX}.:XJ./ P ^ L #.W.Y.yXr.z x = ~ +.9 8 o.^ $               ",
"                S H G S C : 4 6 v C C C =.7 + y d.^.OXS.U.OX;X+X| e y.`...`.4XV.~.yXr.z C x - X     %                   ",
"              > M D G J C + < 4 5 n M M =.D O e #.n.U.8 A.1XU.L 5X4X`.7X+.tXuX+XT.wX<.x v 3 3 +                         ",
"              b K V K F n 4 7 4 4 v M M b 4 o # ! d.P.J.g t ..y...h @ 9 Y.|.oXR.z. .# b 4 : +                           ",
"              v H H K D C > : 7 6 d M m Z M > & q ` g.[.S.y &XtX9.y.3X6X/.;X}.H.x.i s v - - O                           ",
"              n V K G D H 4 - 4 7 5 v M Z H G ; # $ ` d.L. X| W 2.9.9.'.oX;Xc.d./ w c > + O                             ",
"              m M G G H S 5 X < 4 5 d m m x x n m 2 $ y / s.H.P.^././.[.4.z.I 9 w d 4 : +                               ",
"            + 4 C H H H D 4 + > 4 7 d d n Z Z S H J C , % 0 P T #.b.s.P . @ q * & 2 > + o                               ",
"            + 4 b D D S G S + : > 4 5 d v n M m C C H J *.m B B 2 $ R r.D.$.!.wX3.$ * +                                 ",
"            : 7 4 m K D D H 4 O O - 4 7 v 6 v m Z M m m S J p.p.< $.@XeXeX1X#XOXqXV.#                                   ",
"            : 4 > M G K D S C b d o : > 7 5 7 v b n n n b b C 4 r XX$X}.oXOXU.I v.<X9.$                                 ",
"            : 4 4 n D D D G G D S x - + > 4 4 4 5 x b b 5 5 v , J.#XXXoXXXs.{.g P s.<X<.                                ",
"            + 4 4 b M C S n m v v n v > - O - - > > 4 7 4 4 7 = (./.l._ b.| K.k.# e ;XG.                                ",
"            + 4 4 7 C C > 3 7 7 5 5 < > b 5 4 : + - : : 2 > 7 w c.L.s.9 c.j.z.C.* i n._.r                               ",
"            + > 5 4 b C > C S S Z S S 7 v M m m 5 : + + + X o y ' / ^ ^ [.j.z.Z.# q s.'.r                               ",
"            O - > 4 5 n 4 6 b c b n m 4 n v v b x 7 1 + k 8.8.q.X...h ] |.) W.$.s B q ~                                 ",
"              - - > 3 4 > 5 c c 6 c v v b c c 4 4 7 > o l 8X8X8Xt.6.7.U O.8 p q f V                                     ",
"              - - - - > 4 > 4 5 5 5 6 6 5 5 4 3 3 > - - ; 1 2 1 1 1 1 : , + O > c 6                                     ",
"              + - - + - : - : > > > > > > : > > > + o ; > b 5 v x > n m H : : > c 4                                     ",
"                              + + + + + + O + + : 6 4 : > - + 2 - + n H S + : > m S                                     ",
"                    O - O                   : > n S 6       + + : v C n + + > : 6 v                                     ",
"                    O > 1 j + O + + +     + + 4 v S b         - - v D 3                                                 ",
"                  O - 4 > >.2 - - : - - + - O 5 b D Z         + - 6 D v                                                 ",
"                O - 3 5 3 & 1 6 3 > < 4 5 4 + > b G S X +     + 7 M 6                                                   ",
"                O > 5 5 > w f m v b n v b v x 3 n ;.m O > + - : 3 m b                                                   ",
"              + : 5 5 3 +   3 S G D G D D D M M C H 7 C Z M v 6 6 H b                                                   ",
"            + - d 6 4 >       b M m m M m -.J n H p.4 5 5 7 > > v S :                                                   ",
"            + > 6 5 4 -         X X + > - 4 >   4 n                                                                     ",
"            + > 6 3 n           O - > 4 x M                                                                             ",
"            + 3 5 b H -         O - - 4 5 m                                                                             ",
"            O > x i.m X         O - > 3 c D                                                                             ",
"              O - -               O - v S 5                                                                             ",
"                                                                                                                        ",
"                                                                                                                        ",
"                                                                                                                        "
};
