/* XPM */
static char *Untitled__60____60_px___7_1675893636[] = {
/* columns rows colors chars-per-pixel */
"60 60 252 2 ",
"   c None",
".  c #1A181B",
"X  c #090B17",
"o  c #221C1E",
"O  c #261819",
"+  c #321716",
"@  c #2A251D",
"#  c #35291C",
"$  c #3B3819",
"%  c #262707",
"&  c #191A22",
"*  c #271C21",
"=  c #341820",
"-  c #1E2333",
";  c #1B283A",
":  c #1E272E",
">  c #20242B",
",  c #272429",
"<  c #352326",
"1  c #252835",
"2  c #383637",
"3  c #373331",
"4  c #521B1C",
"5  c #6D1A1E",
"6  c #43261E",
"7  c #48361C",
"8  c #58331B",
"9  c #71341B",
"0  c #481C23",
"q  c #671A20",
"w  c #701627",
"e  c #492326",
"r  c #592628",
"t  c #4B342F",
"y  c #642728",
"u  c #6B2D35",
"i  c #762D34",
"p  c #753539",
"a  c #6F312B",
"s  c #39443A",
"d  c #4B4519",
"f  c #584619",
"g  c #595113",
"h  c #794A18",
"j  c #685617",
"k  c #785916",
"l  c #665015",
"z  c #767012",
"x  c #585035",
"c  c #784122",
"v  c #77712E",
"b  c #1D2B45",
"n  c #192C4C",
"m  c #1D334A",
"M  c #182D53",
"N  c #1A3558",
"B  c #0A3158",
"V  c #363645",
"C  c #28334B",
"Z  c #173667",
"A  c #0B3779",
"S  c #153C7D",
"D  c #153A76",
"F  c #0B3166",
"G  c #223D6B",
"H  c #663A43",
"J  c #154156",
"K  c #2B4356",
"L  c #174566",
"P  c #164A7A",
"I  c #14577C",
"U  c #0D4C6E",
"Y  c #334F6F",
"T  c #1D6276",
"R  c #484948",
"E  c #4B4D53",
"W  c #6B4E4C",
"Q  c #74714F",
"!  c #545365",
"~  c #5C6C6D",
"^  c #6E6C70",
"/  c #4D6A55",
"(  c #8E2F1B",
")  c #B7241A",
"_  c #AA291C",
"`  c #AC1522",
"'  c #892D37",
"]  c #883439",
"[  c #94373A",
"{  c #942B28",
"}  c #B33033",
"|  c #8E1621",
" . c #D0331D",
".. c #EE301D",
"X. c #CB1C21",
"o. c #C93939",
"O. c #D23730",
"+. c #FC2821",
"@. c #855418",
"#. c #965A18",
"$. c #864B16",
"%. c #AC5815",
"&. c #886A15",
"*. c #966714",
"=. c #867715",
"-. c #997712",
";. c #8B6E09",
":. c #A9750F",
">. c #934636",
",. c #8E762B",
"<. c #AE413D",
"1. c #FB5818",
"2. c #F1491A",
"3. c #D37012",
"4. c #FB6916",
"5. c #FA7713",
"6. c #EF700D",
"7. c #DA443C",
"8. c #CE403B",
"9. c #E6483E",
"0. c #D85218",
"q. c #973842",
"w. c #942847",
"e. c #A73945",
"r. c #B53E4C",
"t. c #CA3B4C",
"y. c #944A4D",
"u. c #B9454B",
"i. c #B3464E",
"p. c #9C7068",
"a. c #CA444D",
"s. c #D84655",
"d. c #CD4B52",
"f. c #E84748",
"g. c #E84958",
"h. c #FC4D5C",
"j. c #F44B59",
"k. c #F95A5E",
"l. c #EC5551",
"z. c #F0635D",
"x. c #F85563",
"c. c #FB6865",
"v. c #F36E6F",
"b. c #96880E",
"n. c #8E8812",
"m. c #A5880D",
"M. c #B9880C",
"N. c #A79B0A",
"B. c #AC8613",
"V. c #B6920D",
"C. c #BCB207",
"Z. c #B2A804",
"A. c #968D2A",
"S. c #979031",
"D. c #A69431",
"F. c #B1A932",
"G. c #C7880C",
"H. c #D69C0C",
"J. c #CE9109",
"K. c #F58B0E",
"L. c #F8970D",
"P. c #F98811",
"I. c #EB8B0E",
"U. c #C7A308",
"Y. c #DCB507",
"T. c #CBB308",
"R. c #FCAC0A",
"E. c #F8A70A",
"W. c #E6B805",
"Q. c #FDBB06",
"!. c #F7B209",
"~. c #FBB308",
"^. c #FFBB08",
"/. c #F8B507",
"(. c #E7A80B",
"). c #DDBE36",
"_. c #D1C705",
"`. c #EBC704",
"'. c #F5C205",
"]. c #FCC504",
"[. c #FECB04",
"{. c #FBC809",
"}. c #FED303",
"|. c #FFDB03",
" X c #F1DB00",
".X c #F9CB14",
"XX c #EAD90A",
"oX c #FDED00",
"OX c #F9E502",
"+X c #FFFD00",
"@X c #FCF400",
"#X c #EBE501",
"$X c #F6D536",
"%X c #F4CE27",
"&X c #FFEE3E",
"*X c #99934B",
"=X c #BAB045",
"-X c #ABA45B",
";X c #FE867D",
":X c #EBD756",
">X c #EFD548",
",X c #E5D96B",
"<X c #E3DD78",
"1X c #EFE36F",
"2X c #D8CC60",
"3X c #153E83",
"4X c #183F83",
"5X c #093180",
"6X c #0F4E8C",
"7X c #0C4785",
"8X c #144283",
"9X c #14448B",
"0X c #154887",
"qX c #135687",
"wX c #134B92",
"eX c #0C5597",
"rX c #125A9D",
"tX c #125598",
"yX c #0B5290",
"uX c #126389",
"iX c #0F6B9C",
"pX c #0A59A5",
"aX c #125CA2",
"sX c #135FA8",
"dX c #0048A2",
"fX c #0A67AA",
"gX c #1263A9",
"hX c #1268B4",
"jX c #0A79BA",
"kX c #1173BB",
"lX c #0C71B0",
"zX c #0D79C6",
"xX c #117BCA",
"cX c #1277C4",
"vX c #097ED0",
"bX c #FF7E84",
"nX c #0889BE",
"mX c #7D8183",
"MX c #0B86D7",
"NX c #1384D3",
"BX c #098BD0",
"VX c #0997E6",
"CX c #02A5F2",
"ZX c #8E8B95",
"AX c #9493A4",
"SX c #AAAAA8",
"DX c #B0AFB2",
"FX c #E8E78B",
"GX c #B6B6C6",
"HX c #BBC5C4",
"JX c #CCC8C5",
"KX c #F0EFED",
/* pixels */
"                                                                                                                        ",
"                                                                                                                        ",
"                                                                                                                        ",
"                                                                                                                        ",
"                                                    7 &.Y.H.8 m.(.6.%.9 @.d f l j                                       ",
"                                                2 v W.[.[.f V.{.2.| 9 -.'.[.'.'.{.V.z 7                                 ",
"                                              x <X$X[.$X).U.|.!.9 -.[.}.{.[.[.{.[.R.L.L.3.#.e                           ",
"                                            x ,X{..X,X:X].[.{.[.W.[.[.'.{.].].[.P.` ( { _ *.@.o &                       ",
"                                          x FX%X{.<X<X.X].].].%X>X{.].'.[.{.].].h j U.Y.Y.Y.W.=.#                       ",
"                                        ,.,X$XQ.:XFX%X].'.].>X,X>X[.].[.].'.].'.T.{.|.[.}.{.}.|.W.&.$                   ",
"                                      x 1X{.].%X<X:X{.[.'.$XFX$X].].].].].].[.[.[.].{.Q.~.Q././.^.].J.7                 ",
"                                      =X$X]..X:X:X%X].[.{.,X:X'.[.'.]..X%X].].].].[.{.L.P.6.4.5.1.2.2.4.%.e             ",
"                                    l >X{.Y.&.1X<X.X[.B.2X<X[.].{.{.}.:X:X].{.].].].[.5...+.X.X.X.` q y ( | O           ",
"                                    &..X|.;.*XFX:X].[.,.2X%X].{.}.W.D.,X[.].'.].].].}.I.{ ( k :.B.=..                   ",
"                                    j [.b.# >XFX>X}.m.S.{.].}.Y.-.< Q 1X'.[.{.].[.'.[.[.`.`.}.OX}.}.m.O                 ",
"                                    $ f d.[ *XFX=X#.[ W $XW.-.>.s.i.-X$X].'.].[.'.[.].{.E.6.5.5.R.'.|.-.&               ",
"          - m m ,                 W H r.c.t.p.2X# t.h.p S.7 w.c.v.u.Q $X}.[.'.[.[.`.`.[.Q.8 | `  .5.^.[.d               ",
"        o Z fXzXnXZ o           * q.g.c.c.j.t t d.k.j.q.w.g.v.c.u.u x $XH.z ).[.-.9 $.=.R.L.T.g = ( 0.P.(.@             ",
"        N L J L P L ;           * = r v.bXc.q.] c.j.j.j.x.bXx.q.2 i y.v 6 v %XY.a d.y.* *.2.~.Q.f X = ( 3.$.            ",
"        P zXBX: U jXrX1         . 2 E t p.v.g.g.j.s.x.h.j.i.< DXDXp [ y.t.p.&Xb.q.y.t u -.9 0.Q.W.j       e             ",
"      J I N rXL NX8XqXqX        . 3 ^ E > u.[ s.j.p } ' H @ o KXDXa h.c.d.,.%Xk r.u [ y.,.;. .P.[.U.<                   ",
"      N I qX@ ; b 1 iXjX        * e 3 ^ HX~ e d.c.e.] + ^ ; E HX! } x.x.d.l [.] a.r r ] 9 N.r  .5.{.k                   ",
"      P 1 > gXm : cXMXP         < s.i W W 2 r.y.p.h.j.8.] i u r ] h.j.z.l.( n.>.e.} i r | 6.% 4 ..P.U.                  ",
"      1 P L m m m N ; O         i.c.g.t.t.f.} t [ f.j.j.h.x.z.c.e.q.j.z.7.8.e i f.[ a < 1 I uXL < _ %.                  ",
"      > m ; L hXD ; 0           w.bXu * d.v.q.e o.} a.j.g.v.c.z.u = <.l.8.9.} < > F pXhXcXMXMXBXVXU O .                 ",
"      ; 7XjXMXtXn @.2.0         = v.v.u i a.x.e.' ] s.c.c.c.g.i ] s.o.7.7.{ < Z 6XsXhXkXgXaXaXtXY a :.k 7               ",
"      j x R R t %.L.5.` =         p z.x.q.u ] r.r.r.u.d.u.i ] q.f.9.9.7.p 9 = S wXrXrXrXaXsXeX1 ) 5.Q.].U.@             ",
"        #XQ.L.L.R.~.E.1.4           r f.h.g.a.e.e.' ' ' e.u.g.f.f.O.' c :.4.* B S 0XwXaXtX8X1 X.5.E.!.E.OXz             ",
"        @XOX~.~./.!.~.M.q q         . r O.f.j.h.h.h.h.h.h.h.O.t.' a z _.{.5.w = Z A F M N - ) 4.E.~.~.E.|.N.            ",
"        T.@X/.!.R.].H.f 0.1._     > qXiXb r ( } o.o.} } } ' ] #.Z._.+X+X'.E.5.6.%.` 9     _ 4.L.E.!.!.!.^.XX@           ",
"        N.+X{.^.~.M.&.H.^.K.2.5 J kXcXhXaX9XM - 8 #.$.#.-.C.#X@X+X+X@X@XoX/.~.E.P.4.+.q q 1.K.K.Q.Q.^.~./.oXz           ",
"        N.+X`.*.l k H.{.!.K.5.r jXhXtXrXwX4XwXC J.}.}.+X+XoX[.oX'.[.|.|.[.{.R.P.P.5.+.q 9 P.P.R.-.&.-.(.^.+XN.          ",
"        g +Xm.k H.^.Q.!.R.P.I.K hXpXaX9X3X3XN * 3.{.oX{.Q.].B./ K #.%.%.B.M.h 6 *.0...q 9 h *.k k J.-.l G.+X_.d         ",
"          #Xn.V.{.~.~.~.R.K.6.K pXwX9X3XZ b     _ L.Q.~.Q.J.J vXcXfXeXyX8XA F D F V 4 { 1.I.*.*.Q.G.M.H.l OX@Xd         ",
"          j T.j ~.~.~.~./.L.I.V 9X3XD m >       r 2.E.E.].k jXNXzXNXNXfXsXaX8X4X4X3X- _ P.L.~.^.Q.:.f ^.-.XX@Xd         ",
"            j d (.^.!.!./.R.%.M 3XN >             _ 1.1.( U MXcXxXxXgXtXaXtX4XS 4X5Xe 2.P.L.!.!.~.Q.R.].=._.T.          ",
"              d `.Q.~.~.Q.3.1 n 1                   q y P CXMXzXkXgXaXpXtX8X4XF C , 5 4.P.E./.!.~.~.!.{._.z d           ",
"                7 @.h @.h @                           $ v I MXpXpXpXeXwX5XF 1 #.1.)  .5.L.!.~.!.!.~.~.|.+X#X@           ",
"                                                      s b.g z s N C K b j *.K.3.( 5 9 6.L.^.!.!.!.~.|.@X+Xb.            ",
"                                          > I jXBXtXaXaXdXP # Z.oXOX X X].{.G.- pXeXqXN 8 G.^.^./.OXoX+XC.o             ",
"                                        I nXVXMXsXaXtXwX0X0X5X1 Z.}.^.{.~.E.3 lXBXkXNXxXeXN k J.}.+X+XT.@               ",
"                                    > iXVXxXhXaXaX9X4X4X4X4X8XA , %.(.~.I.$.M tXN cXcXBXNXxXyX1 N._.z *                 ",
"                                  ; I fXeXrXwX9XD Z Z Z Z b b b * & 8 @.7   b b lXjXjXVXBXMXVXZ                         ",
"                                @ b.T.G.f ; b b ;                             m qXU iXiXcXjXBXm                         ",
"                                @.OX6._ t B D D S M                             O J L lX0XBXqX,                         ",
"                                8 @.2 7XzXcXrX8X4X3XN >                           @ K m > P 1 &                         ",
"                                  X U MXxXNXxXeX6X8X3XS M ,                       d N.@ P Z tXP N b o                   ",
"                                      uXVXcXxXkX6X9X3X3X9XM o                       , gXMXzXaXaXwX3XN >                 ",
"                                      > BXBXNXkXtXeXyX8XS 8XN *                     : BXBXzXxXhXrX9X3XD 1               ",
"                                        ; BXBXxXgXqXyXwX8XS 3Xn                     O I VXcXxXkXrXaXwX4XD *             ",
"                                          uXCXNXfX7X6X6X6XP 3XD >                     ; BXBXzXfXaXfXpX4X3XN             ",
"                                          K I yXrX6X6X6X6X0X4X3XZ                     : CXfXN Y Y Y K M A 4X-           ",
"                                        ZXJXZXQ b 6XwXwXeXb b N b >                   1 uX^ SXJXDXJXJX^ < Z n           ",
"                                    R DXKXSXDXSX~ N U 7XB R ^ t t                     X ! KXSXDXSXSXSXDX^ R 3           ",
"                                2 DXGXDXAXAXAXAXZXV E ! ! ZX^ V C >                   & ZXSXZX^ ! V V V E V 2 &         ",
"                                Q -XS.A.A.A.A.A.n.v S.D.D.A.z =.&.8                     *X*XS.=.=.&.=.=.=.z @.r         ",
"                                D.=XF.T.C.C.C.C.C.C.V.M.M.M.M.M.G.(                     =X=XZ.C.C.V.M.M.G.M.3.9         ",
"                                                                                                                        ",
"                                                                                                                        ",
"                                                                                                                        "
};
