/* XPM */
static char *Untitled__60____60_px___1_1675891078[] = {
/* columns rows colors chars-per-pixel */
"60 60 251 2 ",
"   c None",
".  c #1A181B",
"X  c #0E0B10",
"o  c #261A1D",
"O  c #381B1D",
"+  c #251109",
"@  c #28251D",
"#  c #33261C",
"$  c #3C351A",
"%  c #2C200F",
"&  c #181A25",
"*  c #0A1B26",
"=  c #231F22",
"-  c #341B2A",
";  c #1F232B",
":  c #1D2738",
">  c #242427",
",  c #362C2A",
"<  c #272834",
"1  c #353336",
"2  c #4E1C1B",
"3  c #483919",
"4  c #54351B",
"5  c #54271D",
"6  c #70301C",
"7  c #461D22",
"8  c #551C24",
"9  c #6B1C21",
"0  c #5A262B",
"q  c #50312F",
"w  c #67292A",
"e  c #782828",
"r  c #792C35",
"t  c #7D343B",
"y  c #6B312E",
"u  c #741C1F",
"i  c #584718",
"p  c #514C17",
"a  c #664719",
"s  c #784818",
"d  c #675517",
"f  c #755516",
"g  c #786B13",
"h  c #7B7414",
"j  c #6B6515",
"k  c #555937",
"l  c #52552C",
"z  c #6C4732",
"x  c #726A2E",
"c  c #576437",
"v  c #1A2A47",
"b  c #1B354A",
"n  c #1A3756",
"m  c #122E53",
"M  c #393947",
"N  c #2B3049",
"B  c #183665",
"V  c #093979",
"C  c #153C7C",
"Z  c #163B73",
"A  c #09316B",
"S  c #5D3845",
"D  c #17435A",
"F  c #304453",
"G  c #18446A",
"H  c #08447B",
"J  c #164879",
"K  c #165478",
"L  c #0F5674",
"P  c #2C4F6A",
"I  c #484747",
"U  c #585656",
"Y  c #4E454F",
"T  c #6E554E",
"R  c #585564",
"E  c #6F6B6A",
"W  c #5E6E57",
"Q  c #8D1B1C",
"!  c #8D2B1B",
"~  c #A92B1E",
"^  c #841921",
"/  c #9B1421",
"(  c #A61E21",
")  c #882B26",
"_  c #87343A",
"`  c #94363A",
"'  c #862D35",
"]  c #B9373A",
"[  c #B02E2F",
"{  c #AC140F",
"}  c #CE321D",
"|  c #EC321C",
" . c #D3342E",
".. c #EC2421",
"X. c #CE1A22",
"o. c #8C5214",
"O. c #AA4F18",
"+. c #856613",
"@. c #847915",
"#. c #967912",
"$. c #8F720C",
"%. c #AD7211",
"&. c #914634",
"*. c #817437",
"=. c #CF5618",
"-. c #F9471A",
";. c #FA5719",
":. c #E6541B",
">. c #CE7110",
",. c #FC6816",
"<. c #FC7C12",
"1. c #EB7010",
"2. c #DB443D",
"3. c #E2453E",
"4. c #993544",
"5. c #873941",
"6. c #A73847",
"7. c #B93B49",
"8. c #CD3E48",
"9. c #8F4D48",
"0. c #B9434B",
"q. c #BA5C61",
"w. c #C7434D",
"e. c #DA4655",
"r. c #D2454C",
"t. c #E64749",
"y. c #EC4958",
"u. c #F64C5B",
"i. c #F35157",
"p. c #F8655E",
"a. c #EB6457",
"s. c #F95862",
"d. c #F55562",
"f. c #F96563",
"g. c #F9706E",
"h. c #CB6269",
"j. c #9A870D",
"k. c #94890F",
"l. c #A8890D",
"z. c #B8890D",
"x. c #BB970A",
"c. c #AA8F0F",
"v. c #B5A809",
"b. c #948C2C",
"n. c #B39A27",
"m. c #C78D0B",
"M. c #C9970A",
"N. c #D6990A",
"B. c #DA890F",
"V. c #F7890C",
"C. c #F8980D",
"Z. c #F88911",
"A. c #EC940D",
"S. c #D6A909",
"D. c #DBB507",
"F. c #C3B107",
"G. c #E9A60A",
"H. c #FAAA0A",
"J. c #E7B705",
"K. c #FCB506",
"L. c #FEBB07",
"P. c #F6B109",
"I. c #FAB408",
"U. c #FDBA08",
"Y. c #F5BB06",
"T. c #E3BE15",
"R. c #DBBD35",
"E. c #D8CA01",
"W. c #D7D103",
"Q. c #FBC504",
"!. c #FECA04",
"~. c #F7C608",
"^. c #E7DB03",
"/. c #FFD303",
"(. c #FEDC02",
"). c #FBD907",
"_. c #F9CB16",
"`. c #F6D210",
"'. c #FDEC01",
"]. c #F9E403",
"[. c #FDF400",
"{. c #FFFD00",
"}. c #F5CE28",
"|. c #F8D83C",
" X c #EFCE34",
".X c #D5CC35",
"XX c #96924B",
"oX c #A59C52",
"OX c #A4A368",
"+X c #CAB951",
"@X c #FD8076",
"#X c #D6CD51",
"$X c #ECD550",
"%X c #E3DD7A",
"&X c #E8DA69",
"*X c #EBE47A",
"=X c #F4E66C",
"-X c #EFDC55",
";X c #143E83",
":X c #173F88",
">X c #0C3C8A",
",X c #0D4A89",
"<X c #144385",
"1X c #134B8C",
"2X c #154489",
"3X c #135289",
"4X c #0D5498",
"5X c #125495",
"6X c #12589C",
"7X c #0B4993",
"8X c #0D6A96",
"9X c #106692",
"0X c #0A59A2",
"qX c #125CA2",
"wX c #105EA8",
"eX c #0E67AB",
"rX c #1263AC",
"tX c #1264A5",
"yX c #0D76A6",
"uX c #0869B2",
"iX c #126BB9",
"pX c #0E75BC",
"aX c #1172BA",
"sX c #3C7392",
"dX c #787685",
"fX c #0D78C8",
"gX c #117CCB",
"hX c #1178C5",
"jX c #007AD1",
"kX c #E77E81",
"lX c #0981B3",
"zX c #0B84CC",
"xX c #0A89D6",
"cX c #1281D3",
"vX c #0992D9",
"bX c #0799E8",
"nX c #0E8FE0",
"mX c #02A2F0",
"MX c #8B888D",
"NX c #9594A5",
"BX c #908FA0",
"VX c #A9A8A7",
"CX c #B3B0AF",
"ZX c #9DA09F",
"AX c #E1A1A3",
"SX c #E2DF84",
"DX c #E3E288",
"FX c #C7C2BE",
"GX c #D2CFD0",
"HX c #F2F5F3",
"JX c #B2B1C2",
/* pixels */
"                                                                                                                        ",
"                                                                                                                        ",
"                                                                                                                        ",
"                                    @     > 4 s ~ 1.H.M.i o.~.c.i                                                       ",
"                                d #.S.J.D.J.Y.x.f e } C.!.d #.).Q.c.k                                                   ",
"                        , 4 o.A.I.Q.!.!.!.!.!./.!.v.2 =./.Y.l.}._.!.=XXX.                                               ",
"                      . 6 O.O.~ ! ~ ,.Q.~.Q.~.Q.Q.!.J.J.!.Q.!.}.&X|.Q.|.oX>                                             ",
"                    & p j.x.l.l.l.6 ! P.!.Q.Q.~.Q.Q._.}.Q.Q.Q.Q.$XDX XQ.=XOX,                                           ",
"                  3 l.~.!.)./././.~.x.J.!.Q.~.~.Q.!.}.&X-X~.Q.Q.Q.-XSXQ.~.&X#Xi                                         ",
"              > +.~.!.Q.~.~.Y.Y.~.Q./.!.Q.Q.!.!.Q.Q.!.~.SX&XQ.Q.Q.}.SX&XQ.Q.|.#X#                                       ",
"          = o.>.;.;.,.Z.<.1.Z.Z.I.~.Q.Q.~.!.~.~.Q.Q.Q.Q.}.%X X!.Q.Q. X&X XY.Y.-X*.                                      ",
"          u } ~ ( X...X.....-.<.Q.~.Q.Q.Q.Q.}.*X_.!.Q.~.Q.$XDXR.J.Q.$XDX$X$.Y._.R.%                                     ",
"          8       i %.o.s ^ / =.!.~.Q.Q.Q.Q.Q.$X+XJ./.!.Q._.-XoXl.~.}.%X&X*.M.`.}.i                                     ",
"                3 S.!./.E.c.c.D.!.Q.Q.!.!.~.Q.|.OXp l.J.!.Q.~. Xb.Y.~.%X*Xn.i J.~.i                                     ",
"              3 J./.!.I.I.U.U.!.~.~.~.Q.Q.Q.~._.*XT 6.` l._./.R.q +.E.*X*Xn.r &.k.>                                     ",
"            . M.).H.<.} X.^ >.!./.(./.Q.Q././.~.#X9.f.f.6.4 c.b.4.u.y XX=XT r.d.q q ,                   = =             ",
"            $.Q.V.=.u O +.j.Y.Y.$.+.l.Q._.n.J.).oX, w.g.g.y.5., 6.s.d.y c T y.f.e.e.t             . b 9XeXeXB o         ",
"          4 A.:.! - & l.(.<.1.p S e.0 x.`.XX# #.XX' 7 r a.g.g.y.y.y.s.f.o 7.a.@Xg.' 7 &           ; G pX9XG n :         ",
"          w 6       #.).V./ #.e q 9.0.f ~.#X&.4.q 6.E ZXS 7.g.u.u.u.u.u.8.y.AXg.y 1 < .         > 3X9Xb < yXlX5X:       ",
"          .       +.!.G.-.o.l.T 9.y 6.s T.#X&.p.y.7.Y HXMXX 0 7.e.w.6.s.8.8.e.o R MX, .         G qXtXzXn fXJ G D       ",
"                @ S.U.,.( f h &._ 0 r.4.z.D._ p.u.8.q HXVXX U Y 7 0 ` f.4.7 E E U F >           pXD v 5Xn > J yXn       ",
"                g U.,.( o m.=.w y y 5.6.M.g ` p.u.u.` I E - Y Y [ r.s.h.0.q E ZXU 5 r *         yXxX3X= v D b < G       ",
"                %.,.{ o : a u 7 u  .e.w.p 6  .a.d.u.e.] 7.r. .t.t.u.e.q 4.r.e e ] u.d.y         : 5XrXb < tXb G G       ",
"                4 0 L yXzXzX8XG G 1 6 r 8 8.t.t.s.5.@ e.g.f.s.u.d.t.r.] - 0.f.w._ 9.g.6.          . : n J < b B >       ",
"              > $ b zXgXtXaXhXcXhX0XA v q ] t. . .` t ' y.f.g.a.s.` ) y 5.u.s._ O w.g.7         7 ~ 1 V hXhXK G v       ",
"            d N.J.:.^ m qXqX6X0XtXtX6X2Xv # ' 3.2.t.y._ r 0.r.p.p.e.7.w.y.7.r w e.AX5.          ! ,.>.3 m 0XeXB $       ",
"          $ E.L.K.H.;.^ n 4X4XwX6X5X<X:Xv ! o.' ] 3.2.t.8.5.y 5.r r _ 4.t 5.7.y.s.5.          w | C.H.V.%.%.%.v.@.      ",
"          g '.H.P.I.C.-.Q v Z J 2X2X>Xm * ! H.x.d r ] 3.t.u.y.y.8.7.7.y.y.u.u.u.) .         . 9 <.I.P.I.H.H.(.{.g       ",
"          v.].P.I.I.H.A.;.Q >   : N N w ( :.P./.[.v.d ) ] 7.t.u.i.u.i.t.t. .[ e b >       5 } ) $.U.I.I.H.H.(.'.j       ",
"        $ ^.L.P.I.K.I.C.Z.;.u   ( | 1.Z.H.K.Q.[.[.{.[.W.l.k.6 ^ e ) ! u 0 , n H gXeXD   7 | <.A.d z.Q.U.H.Q.{.v.        ",
"        h {.Y.U.U.G.P.C.Z.Z.~ # ..;.C.Z.H.Y.).[.[.].'.{.{.[.W.F.m.%.m.$ A Z 6XwX6XiXzXD / ;.Z.U.U.+.+.N.P.!.{.v.        ",
"        c.{.Q.N.f f a N.C.>.O.O ..;.V.>.>.K.Q.K.Y.Y.N.F.J.U.'.{.'.'.).o.A <XC 1XqX6XiXuXq Z.Z.P.I.P.%.d i D.{.c.        ",
"        ^.{.l.a m.~.m.i a f O.u ( } z < < z x z z q F 6XP x.L.P.Q.).C.! * b J ;X;X6XwXrXF V.V.H.I.I.U.U.%.k.{.p         ",
"        ^.[.d G.%.+.U.m.%.C.<.:.2 < V C ;X,X7X0XuXfXgXxXjXl K.K.H.Y.;.9     < B ;X1X1X4XI <.Z.P.I.I.P.Q.z.c.E.          ",
"        ^.{.$.K.z.z.I.U.L.C.Z.;.8 >X<XC C 5XwXqXrXgXgXhXnX9Xo.C.C.Z.~           : n :X>X1 V.H.P.I.I.I.G.3 E.$           ",
"        k.k.g ~.U.U.P.P.I.P.Z.<.! m V ;X;X<X5XqX6XiXgXgXlXzXG ) | ~ 8             = v Z n 6 H.U.I.U.I.!.p >             ",
"        # k.^.).H.P.I.I.I.I.A.Z.X.7 w , A C <X6XqXtXuXaXgXbXvXn 5                       v < %.A.A.G.C.F.p               ",
"          W.{.].Q.K.I.K.I.I.H.Z.:.Q -.1.o.< B V >X7X7X7XuX8Xp k.o                             5 4 4 4 =                 ",
"          d {.[.'.L.P.P.K.Q.H.>.o.- 0 s V.B.l.l k k k l h d l c G n D D                                                 ",
"            k.{.{.'.Y.I.L.m.s N 3XtXuXG 4 P.L.).(.(.[.].p n 7X4XtXtXeXvX8XK :                                           ",
"              g ].{.'.m.i n 0XfXxXhXtXvX>X+.L.U.Q.~.L.3 A 2XC <X2X5XqXrXcXbXzX9X@                                       ",
"                $ k.j.< 4XfXcXcXhXzX3Xb ;X# o.B.G.O.3 m C Z C ;X:X:X2X5XqXrXpXbXyX:                                     ",
"                      m vXxXzXvXvX9XvXG <   * O O     > = = : B B B n Z C 1X1XJ 9XK >                                   ",
"                      > eXzXaXuX9X8Xn G o                           = v v v & o.A.E.j.                                  ",
"                        n xX3X8XL G ;                             > Z C ;XJ B M ( C.!.6                                 ",
"                      = : G b < F , .                         o v Z ;XC ,XtXfXfXH q s                                   ",
"                  : B Z 0XZ 3Xm $.j                         : B <X<X1X1XtXzXgXzXvXb                                     ",
"              = n C 1XqXqXfXgXgXD +                       : Z 2XC <X1X4XhXgXgXbXD                                       ",
"            > Z :X:XqXwXgXgXhXmXD +                     < C ;X;X<X4X5XqXfXfXbXyX                                        ",
"          ; Z ;X:X0XqXwXgXgXxXlXo                     = Z ;XC 2X3X5X,XaXgXvXyX>                                         ",
"          m :XC 0XwXwXqXhXgXbXK                       m ;XC <X3X,X,X3XfXnXmXD                                           ",
"        > Z C m F P P P B H mXK                     : 2X2X;X,X,X,X3X4X8X3XK F                                           ",
"        v Z 1 U FXGXCXFXFXZXsXD                     : b v * Z 5X1X5XH 1 E VXGXMX                                        ",
"        < I T ZXCXZXVXVXVXGXZX&                     , q I E 1 J ,XG F MXCXCXCXHXZX1                                     ",
"      & M M M M M N R dXMXBXJX1                     < N R NXdXM F 1 R VXBXBXNXBXJXFXBX*                                 ",
"      7 o.g @.@.@.@.@.g b.b.oXk                   - s k.h @.b.b.b.b.h k.b.b.b.b.b.b.OXx                                 ",
"      e V.N.S.S.S.S.^.W.E..X#Xx                   8 >.S.S.G.S.M.N.D.W.W.E.E.E.E.E..X$Xb.                                ",
"                                                                                                                        ",
"                                                                                                                        ",
"                                                                                                                        "
};
