/* XPM */
static char *Untitled__60____60_px___6_1675892917[] = {
/* columns rows colors chars-per-pixel */
"60 60 152 2 ",
"   c black",
".  c #0F0D0B",
"X  c #1A1816",
"o  c #262523",
"O  c #363534",
"+  c #3A3937",
"@  c #3D3C3B",
"#  c #484746",
"$  c #4E4E4D",
"%  c #595756",
"&  c #5B5A59",
"*  c #60605F",
"=  c #6E6A5B",
"-  c #716C5D",
";  c #656362",
":  c #686765",
">  c #6C6C6B",
",  c #757473",
"<  c #797776",
"1  c #7A7877",
"2  c #7D7D7C",
"3  c #866B4C",
"4  c #8D7253",
"5  c #92795D",
"6  c #888578",
"7  c #A0896F",
"8  c #A38E76",
"9  c #E69E78",
"0  c #848483",
"q  c #888787",
"w  c #8C8C8B",
"e  c #91908F",
"r  c #9C998F",
"t  c #959493",
"y  c #999897",
"u  c #9C9D9C",
"i  c #AA9780",
"p  c #B19F8B",
"a  c #A19E93",
"s  c #A09F9E",
"d  c #B4A38F",
"f  c #A4A29D",
"g  c #A8A59C",
"h  c #B5A491",
"j  c #B7A997",
"k  c #BAAA97",
"l  c #BCAD9C",
"z  c #A4A3A3",
"x  c #A9A7A5",
"c  c #AAA8A6",
"v  c #A7AAAB",
"b  c #ACACAC",
"n  c #B2AFA7",
"m  c #B6B3AC",
"M  c #BAB6AD",
"N  c #AEAFB0",
"B  c #B4B4B4",
"V  c #B9B7B5",
"C  c #BBB9B3",
"Z  c #B7B9BA",
"A  c #BBBBBA",
"S  c #E8A481",
"D  c #EBAC8B",
"F  c #ECB395",
"G  c #EDB99E",
"H  c #C2B4A4",
"J  c #C6BAAB",
"K  c #C9BCAE",
"L  c #C1BCB7",
"P  c #CABCB1",
"I  c #C1BEBC",
"U  c #EEBCA3",
"Y  c #CDC2B4",
"T  c #C3C2BE",
"R  c #CAC3B8",
"E  c #D4C9BE",
"W  c #EFC4AE",
"Q  c #F1C3AB",
"!  c #EEC6B1",
"~  c #E6CBBD",
"^  c #F1CAB5",
"/  c #FACAB1",
"(  c #F2CDBA",
")  c #F4D0BE",
"_  c #C4C4C3",
"`  c #C8C7C2",
"'  c #C7C8C7",
"]  c #CBCAC5",
"[  c #C6C8C9",
"{  c #CCCCCC",
"}  c #D6CDC2",
"|  c #D0CFCB",
" . c #D9D1C7",
".. c #D3D1CE",
"X. c #DCD5CD",
"o. c #CFD0D1",
"O. c #D4D4D3",
"+. c #D9D6D4",
"@. c #DBD9D5",
"#. c #D7D8D8",
"$. c #DCDCDB",
"%. c #E5D0C2",
"&. c #EED5C7",
"*. c #E0D7CD",
"=. c #EDD7CB",
"-. c #EED9CE",
";. c #F4D5C5",
":. c #F9D6C5",
">. c #F9D8C7",
",. c #F2D6C9",
"<. c #F5DACC",
"1. c #F9DBCC",
"2. c #E3DCD4",
"3. c #EADCD4",
"4. c #E1DEDC",
"5. c #F6DED1",
"6. c #FADED1",
"7. c #E4E1DD",
"8. c #E9E3DD",
"9. c #F6E1D5",
"0. c #FAE2D6",
"q. c #F5E4DB",
"w. c #F9E6DC",
"e. c #FCE9DE",
"r. c #DDDFE0",
"t. c #DEE1E2",
"y. c #E4E4E4",
"u. c #E9E6E3",
"i. c #E7E8E7",
"p. c #ECE9E5",
"a. c #E6E7E8",
"s. c #E6E8E9",
"d. c #ECECEB",
"f. c #F1E7E1",
"g. c #F4EAE5",
"h. c #FBECE4",
"j. c #F2EEEA",
"k. c #FAEFE9",
"l. c #EFF0EF",
"z. c #FFF0E7",
"x. c #F3F1EE",
"c. c #FCF2EC",
"v. c #EBEFF0",
"b. c #EEF1F2",
"n. c #F4F4F4",
"m. c #FBF6F3",
"M. c #F7F8F7",
"N. c #FDF9F6",
"B. c #F5F7F8",
"V. c #F8F7F8",
"C. c #F7F9F9",
"Z. c #FEFEFD",
/* pixels */
"c V Z.Z.A _ Z.h.q.Z.Z.Z.Z.Z.Z.Z.Z.Z.Z.Z.Z.Z.1.h.Z.N.Z.Z.Z.Z.c.q.Z.Z.c.N.n.I N.Z.p.u.Z.Z.Z.Z.Z.Z.Z.Z.n.n.Z.Z.Z.N.Z.Z.Z.N.",
"Z V Z.$.@ y Z.q.5.Z.Z.Z.Z.N.N.B.Z.{ # s.E 8.;.k.Z.{ y.z.g.Z.k.w.Z.N.U 0.t.0 Z.Z.H h Z.c.Z.@.t Z.#.O.n.j.Z.i.#.Z.y., B.Z.",
"Z.Z.Z.Z.Z.Z.N.Z.Z.Z.#.y.Z.Z.{ 2 Z.B.{ n.J n.Z.N.Z.N.Z.;.6.Z.N.B.Z.Z.N.Z.Z.Z.i.z Z.Z.Z.^ Z.s.b Z.V.B.Z.Z.Z.b o $.s.A p.j.",
"N.q.Z.Z.N.Z.Z.@.B Z.0 L Z.Z.v.s.Z.Z.Z.Z.Z.N.Z.n.n.Z.Z.Z.Z.Z # z Z.y.Z.Z.N.Z.y.2 Z.Z.Z.N.Z.Z.Z.M.Z.Z.N.k.,.M.7.B.Z.Z.h 8.",
"g.Q Z.Z.Z.Z.Z.' z Z.Z.,.N.s.Z.h.h.Z.Z.Z.,.0.C.M.Z.Z.e.k.d._ +.M.B.N.C.q.c.n.Z.y.I Z.u.j.Z.Z.;.w.Z.N.g.F S ( Z.Z.Z.c.M.Z.",
"Z.Z.N.Z.h.0.b.B.Z.c.Z.N.#.Z.d.=.8.Z.Z.N.N.x.d u.d.Z.q.k.Z.B.*.N.+.Z.s.x.Z.O.Z.t @ Z.h j.Z.Z.Z.Z.Z.N.N.h.) k.Z.N.Z.( k.Z.",
"i.< M.Z.k.g.B.B.g.;.d.x.4.Z.n.B.B.n.Z.k.:.Z.x.Z.B.c.Z.Z.Z.N.Z.Z.Z.Z.N.Z.Z.d.Z.s.1 N.N.N.Z.$.Z.Z.d.N.Z.Z.d.k.h.Z.N.Z.Z.Z.",
"n.' Z.p.n.$.y.Z.Z.7.= g Z.Z.l.m.N.d.Z.Z.7.Z.Z.c.Z.Q F G 9.Z.Z.Z.n.Z.i.Z.p.Z.1.e.t.n.Z.N.Z.C.Z.Z.C.<.q.Z.n.z.q.Z.Z.z $.Z.",
"Z.Z.Z.N.Z.Z.Z.c.Z.y.m Z.b u B.p.^ N.B.Z 2 n.d.Z.Z.c.Q D c.d.q.Z.c.N.Z.Z.Y 7 x.Z.Z.O.$.Z.n.n.Z.B.Z.Z.#.x.B.+.n.p.Z.b @.Z.",
"m.N.Z.Z.Z.N.N.d.N.Z.Z.c.@.#.N.N.q.;.q.n.Z.$.t.Z.B.s.Z.3...d.x.Z.Z.Z.B.p.Z.@.n.$.m.Z.n.N.Z._ b u.d.Z.N.Z.Z.B.Z.M.Z.Z.Z.Z.",
"N.N.B.j.Z.g.k.Z.y A Z.N.Z.Z.B._ Z.Z.u.B.7.Z.Z.c.N.Z.Z.B.7.m.N.c.N.N.N.Z.N.Z.Z.i H Z.c.Z.Z.P c Z.N.l 4.n.Z.N.Z.Z.Z.N.Z.Z.",
"$.B.N.n.n.B.$.y., { Z.Z.O.d.d.n.u.Z.C.Z.y.N.Z.<.Z.A #.Z.k.9.Z.N.Z.Z.d.Z.$.Z.Z.R @.Z.Z.{ s.z.Z.Z.B.X.V.C.c.c.Z.) k.Z.g.Z.",
"$.j.N.Z.j.N.m.n.Z.Z.C.N.b.B.N.N.i.N.c.c.Z.d.Z.q.Z.s V N.Z.Z.N.Z.Z.] Z.Z.N.N.a.Z.d.N.Z.s.B.Z.s.i.Z.Z.y.N.Z.Z.N.N.p.d.s.M.",
"Z.Z.;.N.Z.Z.Z.i.M.Z.N.Z.Z.M B.Z.w Z Z.q.Z.N.c.n.7.R d.7.B.j.y.d.4...n.Z.i.N.Z.Z.c.1.Z.Z.N.$.n.d.Z.n.Z.Z.N.Z.n.Z.b.t.Z.Z.",
"N.Z.Z.N.N.6.3.{ Z.N.B.n.n.i.B.Z.s.n.B.N.t.N.( Z.p.4 8.Z.n.v.Z.V N s.n.N.Z.d.M Z.N.N.Z.c.>.Z.Z.d.M.{ N 7.Z.M.Z.Z.c.:.k.Z.",
"Z.n.B.Z.j.^ j.O.N.C.3.q.M.O.n.Z.Z.x.g n.d.j.g.d.Z.j.N.y.Z.Z.q n.Z.b.N.m.Z.7.C Z.Z.> y N.N.Z.Z.s.M.n.u s.i.Z.Z.N.Q U c.Z.",
"Z.n.C._ +.Z.Z.B.N.Z.q.w.C.C.c.^ Z.B.i.Z.Z.B.Z.Z ' Z.;.Z.Z.d.O.N.N.d.C.n.j.Z.Z.Z.Z.V o $.: c Z.Z.x.N.Z.d.` Z.n.d.N.n.Z.Z.",
"n.d.Z.V +.V w Z.Z.j.j.r.i.Z.| m.Z.Z.Z.Z.d.N.Z...Z Z.z.y.C.j.Z.,.U 5.C.#.Z.n.$.Z.n.Z.n.N.s y.N.#.Z.Z.Z.s.N.Z.C.Z.B.n.Z.N.",
"Z.Z.N.Z.Z.X $ Z.N.N.Z.n.N.Z.s.Z.d.B.{ V N.n.x.Z.Z.n.Z.d.N.Z.Z.c.G / +.y Z.B.B.$.m Z.Z.C.x.Z.i.M Z.m.N.v.< a.n.N.Z.n.B.Z.",
"Z.Z.<.k.B.q m.x.n.Z.Z.C.Z.n.x.Z.N.Z.{ b Z.Z.m.N.x.8.Z.m.Z.N.n.~ U 8.s.Z.Z.Z.n.N.i.N.h.Z.B.Z.Z.Z.N.N.N.Z.Z j.B.Z.Z.N.V 7.",
"N.Z.Z.M.Z.Z.m.N.Z.m.Z.N.k.Z.N.B.n.d.z B.N.' X.Z.Z.y.z C.Z.Z.M.z.N.B.n.9.q.Z.@.Z.Z.c.Q c.Z.m.3.Z.:.Z.M.m.Z.Z.: z Z.s.% d.",
"Z.o.$.Z.Z.Z.Z.N.$.d.Z.Z.Z.Z.i.n.Z.x + d.Z.7.K Z.a.d.T y.q [ Z.n.Z.N.Z.k.N.Z.Z.4.| Z.f.N.Z.x.u.n.M.Z.Z.H E Z.s o.Z.Z.Z.B.",
"Z.w B Z.A w Z.i.O.Z.d.N.M.Z.N.Z.Z.n.Z.O.n.Z.Z.Z.Z.N.Z.Z.#.z Z.B.Z.' v.C.d.Z.Z.B.B.Z.Z.d.Z.Z.Z.n., B Z.h.Z.i.Z.0.N.n.; B ",
"s.Z.n.Z.O._ Z.N.Z.Z.Z.Z.Z.y.Z.$.s.Z.Z.n.s.Z.7.N.k.5.Z.N.Z.Z.y.d.Z.Z.Z.Z.N.Z.Z.s.N.m.Z.Z.( Z.z ' i.| q.8.i.Z.i.=.Z.d.b Z.",
"B.Z.n.Z.Z.Z.Z.2.x.Z.b A N.v.Z.x.N.k.6.s.' Z.Z.Z.Z.N.p.Z.Z.Z.B b Z.p.N.Z.Z.i.i.Z.Z.Z.Z.8.j.Z.u ' Z.Z.n.B.y.k.3.Z.C.s.Z.Z.",
"z.e.Z.Z.B.Z.N.C.Z.Z.x y.+.$.6.! j.k.e.M.Z.s.n.Z.N.Z.$.m.m.d.Z.n.Z.s.B.Z.Z.w B Z.d.#.Z.R %.1.Z.Z.N.m.Z.Z.Z.h.q.Z.Z.Z.0.k.",
"w.w.Z.N.y.;.w.B.d.Z.Z.Z.M.y.z.g.Z.Z.Z.;.h.Z.Z.^ ^ Z.Z.g.N.y.B.Z.Z.Z.Z.Z.N.Z.Z.Z.Z.y.m.c.h.0.Z.c.Z.M.N.Z.g.Z.n.Z.N.T d.Z.",
"Z.$.N.Z.e.;.N.N.Z.B.z s.n.O.Z.N.Z.u | Z.n.2.Z.Z.N.Z.Z.Z.Z.x Z N.5.n.n.c.U N.Z.Z.{ i.Z.w.Z.N.N.N.Z.i.Z.N.N.Z.n.b.B.d.Z.N.",
"d.> n.j.x.n.b.B.v.N.b Z.y.C Z.Z.s.. b Z.2.5 Z.u b Z.N.p.q x.N.5.q.C.n.c.6.Z.k.m.y f Z.Z.B.N.k.( Z.Z.Z.z y Z.j.N.y.Z.d.#.",
"i.N.N.B.g.~ d.Z.i.Z.Z.n.s.@.Z.x.Z.O.i.Z.Z.j.Z.+.y.Z.Z.n.Z N.j.n.t.y.j.#.Z.Z.N.N.Z.Z.Z.Z.i.Z.Z.Z.q.z.N.#.$.N.d.Z.Z.N.Z.Z.",
"Z.Z.m.b.h.( Z.M.M.Z.N.Z.B w x.p Z.Z.d.i.Z.Z.0.Z.Z.c.Z.Z.Z.Z.N.Z.Z.N.Z.Z.Z.N.N.2.Y Z.Z.c.Z.n.d.Z.c.h.Z.A ' Z.n.Z.Z.Z.b.+.",
"p.u.c.N.N.N.c.g.B.j.8.h.k.Z.N.7.' Z.Z.N.Z.k.,.m.N.Z.Z.c.N.c.N.N.m.Z.B.j.Z.M.Z.8.*.Q c.Z.x o.N.m.Z.Z.n.; z Z.x.Z.w #.O.s.",
"Z.V.N.n.x.N.' N.n.x.N.;.&.Z.Z.n.B.Z.s.Z.s.n.Z.Z.Z.Z.Z.Z.c.y.m.N.m.k.Z.N.M.n.Z.Z.Z.-.L Z.z { Z.Z.s.Z.N.Z.V M.Z.Z._ d.C j.",
"0.4.' x.N.N.N.N.b.Z.Z.Z.+.d.Z.C.Z.Z.N.m.Z s Z.Z.Z.Z.<.k.T - ] Z.Z.Z.Z.i.N.Z.Z.#.d.Z...u.Z.B.Z.4.j.y.y.+.y.Z.Z.N.Z.N.Z.Z.",
"c.h.N.Z.k.Z.Z.i.Z.x.d.Z.Z.M.u.Z.c.Z.c.g.Z.Z.Z.N.Z.N.N.N.r - y.i.y.Z.C.N.Z.B.Z.l.n.Z.] { Z.c.k.s.M.n.z Z M.y.O.N.N.Z.Z.N.",
"Z.k.5.N.Z.N.m.n.Z.s.Z.7.K Z.Z.Z.Z.Z.h.( N.Z.A ] M.h N.Z.C ` Z.d.d.Z.d.Z.#.d.Z.Z.Z.n.Z.i.s.N.0.Z.+.Z.h.h.Z.n.n.9.q.Z.y.n.",
"N.N.Z.m.i.Z.{ +.Z.N.j.j.2.Z.Z.Z.d.Z.N.q.O.Z.g $.Z.x.Z.Z.Z.Z.c.N.Z.i.T { Z.Z.d.$.Z.N.Z.Z.Z.Z.Z.u.C.Z.q.k.Z.N.Z.k.x.Z.Z.Z.",
"Z.B.j.Z.N.Z.d.y.Z.Z.x.Z.Z.g.H Z.Z.Z.n.Z.Z.N.N.Z.Z.Z.] $.N.n.Z.x.x.4.6 g i.8.Z.Z.Z.i.M.4.N.C.n.x.Z.N.$.b.Z.a.d.Z.s.Z.w.c.",
"N.n.N.Z.#.n.B.O.Z.N.Z.C ] Z.$.M.N.Z.Z.Z.y s Z.b Z Z.a ..Z.n.Z.Z.N.Z.Z.N.C 7.$.7.Z.Z.Z.j.N.Z.x.Z.N.Z.1 t Z.8.N.i.Z.d.<.m.",
"B.s.Z.B.w s.Z.Z.N.N.Z.y.n.Z.B.N.Z.N.Z.Z.t.s.Z.s.i.+.| Z.s.Z.d.M.$.Z.B.Z.c.Z.T p.B z Z.Z.Z.^ k.Z.Z u ' x B.d.M.#.Z.d.C.Z.",
"Z.Z.Z.Z.Z.Z.$.Z.Z.Z.N.Z.Z.Z.B.n.Z.N.8.Z.Z.Z.8.Z.Z.N u n.n.Z.Z.Z.Z.B.O.N.Z.Z.Z.Z.B.i.Z.O.N.^ U Z.N.y.Z.v.i.Z.Z.Z.Z.N.Z.Z.",
"Z.@.j.Z.Z.Z.n.p.Z.Z.7.l Z.Z.7.j.Z.Z.Z.Z.Z.8.d Z.p.i.Z.Z.Z.Z.n.N.N.( Z.Z.+.z Z.Z.V ' Z.N.Z.N.k.8.l Z.k.Z.Z.N.q.h.N.s.Z.j.",
"Z.h p.n.& x Z.l i N.Z.Z.Z.Z.n.Z.Z.u.7.Z.Z.Z.$., d.Z.Z.Z.Z.Z.N.M.m.c.V B +.u N.Z.c { Z.N.Z.Z.Z.Z.j.Z.M.Z.s.;.U k.Z.N.n.M.",
"Z.N.Z.#.2 +.Z.Z.X.N.$.$ 2 Z.Z.Z.M.s.d.> ' Z.' & Z.,.q.{ B.Z.Z.Z.Z.Z.{ O.v.Z.n.N.Z.Z.5.,.Z.Z.$.t ' n.Z.[ C.j.N.N.Z.C.n.Z.",
"Z.Z.Z.Z.Z.Z.N.N.Z.Z.@   y Z.k.q.Z.Z.Z.y.B.Z.Z.Z.Z.e.N...N.w.;.Z.i.n.Z.Z.N.Z.y.B.r.N.N.Z. .7 #.V j.Z.Z.q.k.Z.N.Z.C.d.Z.s.",
"N.;.Z.N.B.Z.Z.Z.Z.Z.> & Z.Z.,.;.h.N.P 2.Z.#.Z.Z.Z.b.B.Z.c.) n.i.N.,.Z.Z.B.N.Z.Z.d.Z.N.k.2.} Z.Z.Z.M.7.z.w.Z.V u Z.n.N.i.",
"c.h.Z.Z.N.N.C.Z.Z.Z.i.B.Z.Z.Z.Z.<.k.j 3.Z.B.Z.N.Z.& * n.p.b.b.Z.g.U n.d.Z.Z.N.s.Z.v.q.5.Z.Z.Z.N.Z.p.l Z.Z.B.T b T N.c.Z.",
"N.y.Z.Z.5.e.s.N.z.q.Z.Z.Z.N.,.h.Z.Z.Z.w.) Z.Z.d.Z.$.n.c.m.x.y.Z.d.c.p.7.B.o.O.Z.Z.N.Z.Z.B.N.Z.B.Z.Z.Z.8.n.n.Z.Z.$.N.g.s.",
"{ < Z.j.n.i.B.V.3.h.Z.Z.Z.0.9 ;.Z.y.Z.g.w.n.y.B.B.n.j.+.Z.Z.Z.k.C.Z.n.Z.O.O z i.8.Z.x.4.N.N.Z.x.M.Z.Z.p.p.B.$.Z.t.n.Z.Z.",
"N.Z.Z.x.Z.4.n.N.d.Z.s.N.v.u.0.h.Z.N.N.Z.Z.Z.n.s.C.Z.Z.B.Z.' > O.n.N.k j.Z.&.z.a.B.Z.j.d.Z.N.Z.N.N.Z.p.Z.Z.z c Z.,.c.r.B.",
"Z.Z.Z.N.Z.Z.Z.B.N.Z.B.Z.e c Z.Z.k.Z.$.n.Z.' p.Z.Z.i.d.i.Z.$ > Z.s.y.n.$.B.c.j.{ n.h.d.C.N.d.Z.X.m.B.Z.N.W h.Z.Z.z.Z.a.d.",
"x.N.Z.N.Z.c.N.s.B.N.M.Z.Z.Z.V.d.Z.Z.Z.Z.Z.p.C.N.+.j.{ Z.p.4.Z.Z.N.i.Z.Z.{ N Z.Z.Z.G U Z.{ Z.k.N.N.Z.n.@.,.q.Z.Z.v #.Z.N.",
"Z.Z.s.j.Z.N.N.Z.n.M.Z.Z.N.Z.d.{ Z.N.s.Z.Z.d.#.Z.t.Z.q.N.M.k.B.d.B.B.y.Z.{ m z.q.B.;.&.N.K E ;.m.Z.Z.v.@.Z.j.i.N.t 7.Z.Z.",
"$.$.Z.B.n.Z.Z.Z.d.Z.Z.Z.#.V.Z.Z.n  .Z.N.m.#.u Z.Z.$.e.m.Z.N.B.N.Z.b.B.N.{ Z.m.m.N.j.v.$.M.#.Z.8.l.Z.Z.B.Z.Z.n.Z.B.B.O.Z.",
"Z.x.w.Z.k.N.Z.s.Z.d.x.Z.Z.Z.q.N.g.Z.w.h.Z.Z.Z.c.Z.y.B.Z...y.Z.g. .Z.g.Z.$.C.Z.{ O.Z.N.Z.+.B.Z.d.B.O.> j.Z.c.d.i.y.Z.v.N.",
"Z.Z.0.Z.Z.$.m N.Z.s.Z.Z.Z.Z.,.N.Z.Z.N.c.Z.Z.Z.Z.1.z.$.y.n.Z.Z.p.d M.m.Z.s.4.Z._ Z Z.Z.N.j.s.Z.s.Z.d.$.p.n.Z.Z.Z.j.N.Z.h.",
"N.Z.Z.n.Z.O.= T Z.m.j.Z.i.y.Z.Z.M.Z.Z.C.t.Z.B.i.h.q.b.$.0.9.Z.Z.N.M.Z.] m Z.j.Z.x.Z.Z.^ ( Z.Z.A b Z.Z.Z.N.Z.Z.y.N.B.d.Z.",
"Z.d.n.M.N.Z.T T Z.M.n.Z._ y Z.Z.Z.Z.Z.Z.Z.Z.7.$.Z.*.d.O.c.Z.Z.$.Z.c.f.i.x.Z.i.Z N.n.Z.c.m.d.N.B.@.d.a.Z.s.0 a.Z.Z.B.J 2.",
"N.n.Z.N.4.Z.B.B.Z.Z.Z.n i.Z.l.Z.n.C Z.x.8 Y Z.x.n.Z.d.Z.b.> $.p.Z.u.3 8.Z.7.B.3.Z.N.c.N.Z.N.Z.n.Z.g.&.Z.$.s.q.z.r.T & s.",
"s.n.Z.#.w Z.Z.Z.Z.c.Z.$.N.Z.d.N.M.O.Z.Z.E 2.Z.x.M.Z.n.Z.B., 7.E X.Z.H Y Z.n.Z.0.k.Z.N.Z.s.n.d.i.Z.N.e.Z.p.Z.c.g.Z._ @ j."
};
