/* XPM */
static char *Untitled__60____60_px___2_1675891696[] = {
/* columns rows colors chars-per-pixel */
"60 60 190 2 ",
"   c #000000",
".  c #0C0806",
"X  c #090709",
"o  c #0D0A0C",
"O  c #170F0D",
"+  c #1A110C",
"@  c #130F11",
"#  c #171115",
"$  c #191115",
"%  c #1A1318",
"&  c #20140F",
"*  c #241D1F",
"=  c #2C1F1B",
"-  c #311F15",
";  c #371D1B",
":  c #381E1C",
">  c #2E201B",
",  c #33231C",
"<  c #3A201F",
"1  c #1D1D27",
"2  c #131E2D",
"3  c #1D1E29",
"4  c #121F30",
"5  c #231D22",
"6  c #2A1E23",
"7  c #301F22",
"8  c #152030",
"9  c #27252C",
"0  c #322123",
"q  c #3C2120",
"w  c #272733",
"e  c #282632",
"r  c #2E2A35",
"t  c #232A3B",
"y  c #2E2C3A",
"u  c #38323A",
"i  c #41291D",
"p  c #452C20",
"a  c #473129",
"s  c #4C332A",
"d  c #52362A",
"f  c #5D3C2F",
"g  c #633C27",
"h  c #633E2E",
"j  c #74362D",
"k  c #693433",
"l  c #633F31",
"z  c #6F3936",
"x  c #723731",
"c  c #743934",
"v  c #7A3C35",
"b  c #743D39",
"n  c #7B3F3A",
"m  c #66402F",
"M  c #6A412C",
"N  c #7F4826",
"B  c #76452A",
"V  c #7A4728",
"C  c #7A452A",
"Z  c #664131",
"A  c #6B4433",
"S  c #7C4930",
"D  c #7C413D",
"F  c #1D2D43",
"G  c #1E3654",
"H  c #2C3142",
"J  c #29344A",
"K  c #233751",
"L  c #253A55",
"P  c #253C58",
"I  c #453D42",
"U  c #7E4441",
"Y  c #664C5A",
"T  c #735259",
"R  c #57526E",
"E  c #5D556E",
"W  c #565472",
"Q  c #5D5771",
"!  c #5E5973",
"~  c #555B7D",
"^  c #5C5D7B",
"/  c #61566D",
"(  c #63586F",
")  c #68586B",
"_  c #745F6B",
"`  c #605770",
"'  c #625972",
"]  c #695D76",
"[  c #655E79",
"{  c #685E78",
"}  c #77606D",
"|  c #63607D",
" . c #736272",
".. c #7B6B7B",
"X. c #803B31",
"o. c #834B2C",
"O. c #844541",
"+. c #B2674C",
"@. c #B86749",
"#. c #BD6E54",
"$. c #866366",
"%. c #81666E",
"&. c #966B66",
"*. c #946B6A",
"=. c #98706F",
"-. c #806A76",
";. c #90747A",
":. c #B47561",
">. c #B47866",
",. c #B47D6C",
"<. c #B47F71",
"1. c #CA7958",
"2. c #D47F59",
"3. c #A4817E",
"4. c #B48376",
"5. c #B68476",
"6. c #D7815A",
"7. c #F68B4D",
"8. c #FC8E4C",
"9. c #FE904D",
"0. c #E58555",
"q. c #EC8753",
"w. c #EE8956",
"e. c #EE8B5A",
"r. c #F48B54",
"t. c #F58C56",
"y. c #FC8D52",
"u. c #FF9352",
"i. c #FF9C53",
"p. c #FD935C",
"a. c #FF995C",
"s. c #FFA45A",
"d. c #E28962",
"f. c #FF9B64",
"g. c #FFA165",
"h. c #3F72AF",
"j. c #3D74B5",
"k. c #3976BA",
"l. c #595F80",
"z. c #4E618C",
"x. c #596184",
"c. c #54648B",
"v. c #59658A",
"b. c #59658B",
"n. c #4C6594",
"m. c #476A9E",
"M. c #4C6B9C",
"N. c #526792",
"B. c #546A94",
"V. c #596B93",
"C. c #516D9B",
"Z. c #5A6E9A",
"A. c #56709F",
"S. c #5B719F",
"D. c #63688A",
"F. c #7B758A",
"G. c #65769A",
"H. c #6B7A9C",
"J. c #737A96",
"K. c #7B7C94",
"L. c #717B9A",
"P. c #7B7F98",
"I. c #476DA3",
"U. c #4C6FA2",
"Y. c #506FA0",
"T. c #4E72A5",
"R. c #4574AF",
"E. c #4C76AC",
"W. c #4E78AF",
"Q. c #5272A3",
"!. c #5F78A3",
"~. c #5177AB",
"^. c #5078AE",
"/. c #4374B1",
"(. c #4A77B0",
"). c #4778B2",
"_. c #4C7AB3",
"`. c #447ABB",
"'. c #4E7DB9",
"]. c #527CB6",
"[. c #527FBA",
"{. c #657BA2",
"}. c #847D8E",
"|. c #8D7E8B",
" X c #927C84",
".X c #827C90",
"XX c #4F81BE",
"oX c #5180BC",
"OX c #4E83C2",
"+X c #928593",
/* pixels */
"                                                                                                                        ",
"          .           .           .           .           .           .           .           .           .           . ",
"                                                                                                                        ",
"o.o.N N N N o.o.N N N N o.o.N N N N o.o.N N N N o.o.N N N N o.o.N N N N o.o.N N N N o.o.N N N N o.o.N N N N o.o.N N N N ",
"i.i.i.i.i.i.i.i.i.i.i.i.i.i.i.i.i.i.i.i.i.i.i.i.i.i.i.i.i.i.i.i.i.i.i.i.i.i.i.i.i.i.i.i.i.i.i.i.i.i.i.i.i.i.i.i.i.i.i.i.",
"9.7.8.8.8.8.7.8.8.8.7.8.8.8.8.8.8.8.8.8.8.8.8.9.9.7.8.8.8.8.7.8.9.9.7.8.8.8.8.8.8.8.8.8.8.8.8.9.9.7.8.8.8.8.7.8.8.8.9.7.",
"9.9.9.9.9.9.9.9.9.9.9.9.9.9.8.9.9.9.9.9.9.9.9.9.9.9.9.9.9.9.9.9.9.9.9.9.9.9.8.9.9.9.9.9.9.9.9.9.9.9.9.9.9.9.9.9.9.9.9.8.",
"r.r.r.u.r.r.7.r.r.u.r.r.r.r.t.r.r.r.r.r.7.r.r.r.r.r.r.u.r.r.7.r.r.y.r.r.r.r.t.r.r.r.r.r.7.r.r.r.r.r.r.u.r.r.7.r.r.r.y.t.",
"r.r.r.r.r.r.r.r.r.r.r.t.r.r.t.t.r.r.r.r.r.r.r.r.r.r.r.r.r.r.r.t.r.r.r.r.t.t.r.r.r.r.r.r.t.r.r.r.r.r.r.r.r.r.r.r.t.r.r.r.",
"9.8.y.y.y.u.y.u.y.y.y.y.8.y.y.8.y.y.y.8.y.y.u.y.u.9.u.y.y.8.8.y.y.8.y.8.8.y.y.y.y.y.y.y.y.y.y.u.9.u.8.y.8.8.y.y.y.u.y.y.",
"4.4.5.,.:.:.:.:.:.:.,.5.4.4.4.4.5.5.4.4.5.>.:.:.:.:.:.:.<.4.4.4.4.4.4.4.4.4.<.>.:.:.<.4.4.<.:.:.:.<.4.4.4.:.:.:.:.:.>.:.",
"/./.).n.R W W W W R z./.R.R./.R./.R.R././.~ W W W W W W U././././.R./.R.(./.I.W W W n.`./.I.W W W n.j.(.R.W W W W W W W ",
"E.E.W.N./ ( ' ( ' / b.E.E.E.E.E.E.E.E.E.E.^ ( ( / ' ' / C.(.E.E.E.E.E.E.E.W.M.' ' ( B.(.E.Q.' ' / V.(.E.T.' ( ' ' / ' ( ",
"~.~.W.V.( ' ' ' ' ( b.^.~.~.^.W.~.~.~.~.~.| ' ' ' ' ' ' C.~.~.~.~.W.~.~.~.^.Q.' ' ( Z.~.E.Q.' ' ( V.W.E.Q.[ ' ' ' ' ' ' ",
"5 5 1 5 * * * * 5 * 5 5 5 5 5 5 5 5 5 1 5 5 * * * * 5 5 5 5 5 5 5 5 1 5 5 5 5 * * * 5 5 5 5 5 5 * 5 5 5 5 5 * * * * * * ",
"                                                                                                                        ",
"                                                                                                                        ",
"m h m m h m h m m m M V B V +     @ 0 0 0 f m m m m m l m m m m Z h m m m h m B B o.-     X 0 7 6 a Z h h h h h h f l h ",
"p.p.p.p.p.p.p.p.p.p.a.i.i.i.i     0 O.n D d.a.p.p.p.p.p.p.p.p.p.p.p.p.p.p.p.p.i.i.s.o.    % U o.b #.a.p.p.p.p.p.p.p.p.p.",
"r.r.7.r.r.r.r.r.r.r.7.7.9.9.i     6 n x c 6.r.r.r.r.r.7.r.r.r.r.7.r.r.r.r.r.7.8.7.i.B     # z x k +.y.w.r.r.r.r.r.r.7.r.",
"r.w.w.w.w.r.e.r.r.w.y.9.9.u.i     0 D j b 2.r.t.r.r.r.w.r.r.w.r.w.t.e.e.r.w.r.9.7.i.B     $ c v k +.t.r.r.r.r.r.r.r.r.r.",
" . . . . . . .G.H.!.3.8.r.r.,     0 D x v D.{.H.{.H.{.H.H.H.{.H.H.H.H.H.H.{.|.r.r.u.h     $ b c j T }  . .J.H.H.H.L.H.L.",
"Q E Q Q W Q Q I.(.j.|.y.r.t.>     0 n x b N.).R./.R.(.R.R.(.R.R./.R.R.R.(.j.H.r.r.p.l     $ c c x Y ^ E ^ R./.(.R.(.R.R.",
"( E ( E / / ' E.(./.|.y.r.r.>     0 n x x B._.W.E.E.E.E.E.(.(.E.W.W.W.E.E./.L.r.7.p.h     # c c x Y ' / ' E.(.(.E.(.E.E.",
"x.x.x.x.x.x.x.C.Z.m.;.t.r.r.>     0 n x x x.C.C.Y.E.E.E.Q.C.C.C.C.C.C.T.E.(.J.r.r.p.h     $ b c j ) b.l.l.C.C.C.C.C.M.C.",
"E.E.E.E.E.E.E.Q / W *.u.r.r.>     0 n x c / Q / x.(.E.E.l./ / E E ' / B.E./.H.r.r.p.f     $ c c j ! ).E.E.! / / ' / / / ",
"E.E.E.R.E.E.E.! ' W *.y.r.r.0     7 n j c / ! / x.E.E.E.l.' E Q Q Q / C.(./.H.r.7.p.l     $ c c j ^ ).E.E.! Q ` Q Q Q ' ",
"E.W.E.W.E.W.E.^ ' W =.p.p.t.>     0 U n b ( ' ' x.(.W.E.x.' ' ' ' [ ' C.(.(.L.p.t.f.l     # b n v ! '.(.E.' ' ' [ ' ' ' ",
"2 2 2 2 2 2 2 3 1 1 0 s s s o     @ 6 5 6 1 3 3 3 8 8 8 3 3 3 3 3 3 5 8 8 4 9 s s d %     X * 6 * 3 2 2 2 1 1 1 3 1 1 1 ",
"                                                                                                                        ",
"                                                                                                                        ",
"      @ 6 5 6 a s s s s s s s s s s s s s s s s d h g h &     o 6 5 5 a s s s s s s s s s s s s s s s s s g g M -       ",
"      q O.c n e.f.t.y.p.p.t.p.p.t.p.p.y.p.p.p.t.p.u.u.s.h     6 U v b 1.p.t.p.p.p.p.y.p.p.p.p.t.p.p.t.p.p.u.9.s.o.      ",
"      : n x v 0.t.r.r.r.r.r.r.r.r.r.r.r.r.w.r.r.r.8.8.u.g     * v x z 1.y.w.r.r.r.w.r.y.w.r.r.r.r.r.r.r.r.8.7.i.N       ",
"      : n x v 0.y.t.y.t.r.r.r.r.7.r.t.t.t.t.t.t.y.8.8.i.g     * n x z 1.y.y.y.t.r.r.r.t.r.r.t.y.r.y.y.r.7.9.7.i.N       ",
"      : n x b F.K.K.K.K..XK.K..XK.}.%.%.%.F..XJ.3.8.r.u.d     * b x x ..P.K.K.K.K.K.-.%.%.-.K.K.K.K.K.K.|.r.7.a.V   .   ",
"      : D x b U./.R.R.R./././.R.).m.R W W I./.j.K.y.w.t.s     6 n b x c.`.R././././.l.Q Q l././.R.h.R.j.Q.w.r.a.B       ",
"      : o.x b Y.(.E.E.(.E.E.W.E._.B./ ( ( A.E.R.}.y.r.p.s     * n x c x._.T.E.(.(.'.l./ / ' E.E.W.W.W.R.{.w.r.p.B   X   ",
"      : D x b Y.(.E.E.Y.Y.Y.Y.Y.T.N.^ ^ ^ T.E./.}.y.r.p.a     * b c x x.).E.T.Y.Y.Y.l.l.l.l.Y.Y.Y.Y.Q.T.S.r.r.p.B       ",
"      : n x b Y.(.(.B.` ` ` ` ` E x.E.E.E.E.E.h..Xr.r.t.a     5 n c c x.).(.Y.! Q ` B.(.(.U.` Q ' Q Q Q ) w.7.p.B       ",
"      ; v j b C.E.E.N./ E E E Q / x.E.E.E.E.E.R.F.8.q.p.s     5 n x x x._.E.M.Q ` E B.E.E.U.Q / E Q E R ) w.r.p.B       ",
"      q O.b U Q.'.'.S.' [ [ [ [ ] b.'._.].(.].`.+Xp.p.f.s     6 U n n b.'.].~.[ [ ' Y.'.[.~.[ [ [ [ [ [  .p.p.g.S       ",
"      $ 0 0 0 F F F t w e e e e e t F F F F F F u Z h Z $     @ 0 0 0 t F F F w e e t F F F e e e w e e r l h A ,       ",
"                                                                                                                        ",
"                                                                                                                        ",
"> > > > > > > > > > , i i < .     X % $ % = > > > > > > = 6 , = , = > > > > , i i p +       # % # * = = = = = = = = = = ",
"t.r.r.e.t.t.t.e.r.t.r.u.9.i.i     7 U c b 2.t.t.t.t.t.t.r.r.r.r.t.r.t.r.t.t.r.u.9.i.B     # b b k +.p.e.r.r.t.r.r.t.r.r.",
"r.r.r.r.r.r.r.r.r.r.8.9.9.u.i     6 n x b 6.t.r.r.r.t.r.t.r.r.r.r.r.t.r.r.r.r.9.8.i.B     $ c v k +.u.r.r.t.r.r.r.r.r.r.",
"y.y.y.t.y.t.y.y.y.y.8.8.8.u.i     0 D j b 6.u.t.t.t.y.u.y.y.y.y.t.y.8.y.8.y.y.8.9.i.B     $ b v k @.9.8.y.u.y.y.y.y.y.y.",
"|.|.|.;.&.*.&.|.|.}.<.8.y.t.,     0 D x c $.=.*.*.&.*.*. X|.|.|.|.|.|.|.|.|.<.y.7.p.M     # c c k $.+X X X&.&.&.&.&.&.&.",
"/././.n.W W W /./.k.|.y.r.t.=     0 n x x E W W W W W W I.j././././.j././.j.{.e.r.p.f     # c b j ~ k././.W W W W W W W ",
"E.E._.b./ ' ' T.~./.|.8.r.r.,     0 n x c / ( ( ' / ' ' C.E.E.~.E.~.E.~.E./.L.r.r.p.h     $ c c j ' (.^.T.' / ' ' / ' / ",
"T.E.(.b./ Q ! T.E.R.|.y.r.t.>     0 n x c / ! ! ! ! ! ! C.E.T.T.E.E.E.T.Q.R.J.r.r.p.l     # b c j ^ (.E.E.^ ' ! Q ' Q ' ",
"! ! ! ' / ' ! T.E.j.|.8.r.r.>     0 n x c V.(.E.I.E.E.E.l.! ' l.E.E.(.c.' W  .r.7.p.f     # c c j ^ ).E.E.T.T.(.b./ ' Q ",
"Q E E E Q Q ! E.~./.|.7.w.w.=     7 n x c c.(.E.E.E.E.E.^ E / ~ E.R.E.l./ W _ q.r.p.f     # c c j Q (.E.E.E.E.(.b./ Q Q ",
"[ [ [ { { [ [ ].oX`.+Xa.p.a.,     0 O.X.n Q.XX'.[.[.'.[.D.{ { D.[.].[.D.] [ -.p.p.g.Z     % U X.v D.OX].'.[.'.XXZ.] | [ ",
"r r r r y y y K K G I N V V O     $ q : 7 J P P P P P L H y y H L L P H y y u V V o.=     o : : ; y L K K K K L H r r r ",
"                                                                                                                        ",
"                          X                     X                             X                         X               ",
"                                                                                                                        "
};
